<svg xmlns="http://www.w3.org/2000/svg" viewBox="0.01 309.93 611.99 172.14">
    <path fill="#fff" d="m611.06 472.6.11-.45.83-.23-1.13-.16c-.3-.6-.3-.6-1.06-.88v-1.31l.33-.56c-.34-.43-.86-.65-1.08-1.04l.33-.47c-.4-.25-.32-.78-.8-.9h-1.02c-.22.18-.4.37-.72.2l-.2-.49h-.76c-.09-.23-.55-.28-.47-.67l.3-.3-.28-.27c.2-.31.6-.43.97-.57l-.49-.4c-.37-.04-.77.09-1.13-.1a3 3 0 0 0-.12-.65q-.21-.34-.47-.64c-.5.2-.79-.24-1.21-.27l-.48.25-.23-.5-.5-.08-.1-.64a3.3 3.3 0 0 0-1.56-.93l-1.38-1.13v-.73l.3-.25c-.21-.1-.27-.33-.56-.36l-.3.25-.45-.35c-.13-.6.42-.42.62-.63l-.63-.26c-.34-.14-.3-.46-.48-.67-.1-.11-.23-.28-.35-.28-.52-.02-.71-.39-1.06-.6h-.64l-.36-.27c-.29-.04-.59.1-.79-.1q-.04-.22-.1-.39l-.57-.16-.1-.4-.61-.17v-.6l-1.93-.76q-.25-.5-.52-.96a1 1 0 0 0-.23-.19l-.66-.28c-.06-.24.12-.48-.15-.67-.7-.04-1.87-.5-2.53-.97v-.56c-.27-.22-.61-.42-.8-.68-.23-.3-.36-.64-.67-.8l-.5-.11-.11-.42-.9-.13-.1-.42-.62-.17v-.3c-.21-.3-.57-.4-.93-.5l-.2-.46h-.27l-1.27-.99c0-.49-.6-.61-.84-.95s-.47-.74-.7-1.11h-.7l-1.28-1.1h-.35l-.49-.8-.17-.3q-.5.02-.9 0c-.1 0-.17-.08-.27-.13v-.5l-1.17-1.02h-.35l-.33-.54-.36-.03-1.16-.96-1.29-.5-.1-.4-.8-.08-1.43-1.17-.18-.46h-.76l-.2-.48-.58-.17v-.2l-2-1.65h-.47l-.5-.34-.14-.43-.5-.09-.21-.5h-.67c-.38-.28-.7-.66-1.13-.8-.57-.18-.78-.71-1.26-.81-.57-.12-.76-.5-1.16-.72l-.02-.27c-.26-.13-.5-.32-.8-.38q-.45-.1-.8-.4c-.27-.2-.46-.47-.92-.52-.26-.03-.46-.38-.72-.55a8 8 0 0 0-.8-.4v-.54c-.16-.14-.3-.36-.48-.38-.53-.04-.7-.3-.85-.67-.13-.33-.73-.43-.67-.88 0-.02-.08-.1-.11-.09-.43.08-.6-.36-1.03-.33-.15 0-.32-.2-.38-.24l-.75-.05-.13-.44-.58-.2-.68-.28c-.08-.22.1-.47-.14-.68l-.84-.07-1.21-1.05c-.6-.15-1.14-.31-1.47-.67l-.11-.35c-.27-.1-.45-.19-.64-.25-.19-.07-.42-.1-.56-.2q-.27-.18-.58-.21-.29-.12-.47-.38c-.1-.12.08-.36-.17-.38l-.6.29-1.33-1.18h-.78l-.5-.4v-.3l-.43-.14-.47.34c-.18-.48-.76-.58-1.21-.76-.4-.17-.67-.49-1.05-.58-.46-.13-.7-.4-1.03-.62h-.57l-.94-.41-1.5-1.24h-.36l-.32-.55-.51-.03-.42-.5-.77-.04-.63-.52h-.34c-.2-.3-.3-.65-.7-.81l-.34.23-.26-.21c-.27-.15-.67.1-.89-.2l-.02-.27c-.35-.23-.94-.2-1-.74-.04-.24-.32-.43-.69-.5-.24-.06-.43-.25-.6-.35l-.1-.42c-.94-.08-.94-.77-1.32-1.2l.35-.36-.3-.29v-.54l.32-.28-.3-.28.33-.32v-.8l.28-.22.08-.62.61-.5-.32-.3v-.81l.32-.29v-1.37l-.3-.3.32-.26v-1.4l.67-.2-.33-.33v-.49l.62-.9-.27-.28c.52-.3 1.12.06 1.64-.23l-.3-.3.3-.3c.51-.17.82 0 1-.26l-.29-.27.48-.41h.88l1.62-.69v-.29q.16-.16.36-.27c.22-.12.5-.17.67-.3.17-.14.71.02.67-.45-.01-.17.31-.33.45-.47.32-.05.63.09.85-.14v-.53c.3-.17.32-.46.47-.68l.54-.15.03-.33c.22-.2.58-.15.84-.37.16-.15.63.08.88-.21.22-.25.67.07.9-.2s.62-.1.91-.2q.46-.4 1.03-.6c.37-.13.61-.51.9-.77l.4.28.32-.25h.83c.79-.35 1.06-.9 1.71-1.12.66-.21.95-.74 1.49-1.07.24.09.4.52.8.15l.08-.64.46-.34 1.38-.06q.06-.02.12-.1v-.26q.41-.18.8-.4.37-.27.7-.58h.37l.32-.56h.66l.35-.24.36.23.48-.43-.63-.2c.07-.21.3-.33.4-.39.45-.19.54.16.7.2h1.06l.45-.4-.32-.32c.28-.16.57-.06.84-.1.31-.17.43-.54.89-.55l.51.24.6-.5.77-.04.13-.42c.17-.2.5-.3.56-.57l-.22-.19.42-.7.78-.07q.12-.5.55-.75l.48-.09.13-.4 1.29-.48-.35-.33c.62-.27 1.31.02 1.82-.14l.63-.8h1.07c.32-.26.59-.63.97-.75.44-.14.71-.38 1.04-.62h1.32c.19-.26.56-.25.82-.38l.02-.08.82-.94.73.03.34.28 1.4-.1c.03 0 .04-.06.05-.08l-.27-.28 1.45-1.2c.27.08.42.53.84.15v-.58l-.34-.38c.68.05.88-.43 1.25-.57l.73-.04.14-.56.58-.32.05-.7.5-.08.47-.78q.02-.07 0-.14l-.33-.3v-.3l.62-.18c.1-.57-.01-1.16.1-2l.6-.22.04-.64.7-.21-.72-.28.38-.4-.4-.6.3-.44c-.38-.25-.32-.77-.81-.9h-1.59l-.56.27c-.35-.07-.45-.4-.94-.25-.13.11-.32.42-.6.48s-.54.14-.67.33c-.18.3-.62.15-.82.39v.18c-.35.66-1.14.75-1.65 1.16-.24.19-.6.28-.91.41l-.26-.2q-.24.3-.45.6c-.18.27-.64.11-.82.38q-.11.15-.25.26l-.05.62c-.61-.04-.8.43-1.23.57a.8.8 0 0 1-.88-.23l-.93.44-1.06.87-.47.1-.2.48h-1.01c-.5.33-.9.77-1.41 1.09l-.27-.23c-.5.11-.42.57-.72.8h-.39l-.68.84h-.62l-1.44 1.19-.14.42-1.32.06-2.2 1.81-.3-.18-.19.45-.88.37h-1.2c-.05 0-.09.06-.13.09-.18.22.13.55-.25.74h-.67c-.44.53-1.22.65-1.74.93-.1.19-.13.34-.23.42-.15.12-.24.3-.51.3a1 1 0 0 0-.4.2q-.2.13-.37.28-.23.2-.5.34-.2.07-.4.1c-.07.26.1.5-.16.71l-.36-.25h-.66c-.31.14-.43.5-.88.55-.36.04-.55.3-.73.5-.24.28-.7.21-.93.5v.51l-.48.41h-1.23l-.95.4-.01.53c0 .05-.13.1-.19.13l-.34-.21-.33.27h-1.34c-.3.25-.67.41-.74.64-.1.35-.33.54-.64.72-.26.04-.57-.1-.77.14v.3q-.3.06-.57.17-.3.22-.6.48c-.48.04-.98-.03-1.46.04l-.6.8-.36.03-.2.46-.57.17v.32l-.9.36-.27-.23h-.67l-.32.24-.48.1-.11.41-.59.17-.04.7h-1.33l-.91-.32-1.06-.86-.1-.37-.61-.18.3-.28-.64-1c.13-.4.76-.48.69-.92.36-.22.27-.68.67-.88v-1.08l.34-.32v-.13l.23.04q-.07-.2-.18-.44l.68-.13.47-.9.15.06.3-1.06.34-.16-.05-.05q.42-.17.12-.5l.4.1.04.03.02-.01h.04l-.02-.03.77-.7.02-.24.9-.36.25.2c.2-.11.4-.22.47-.42l-.29-.32 1-.13v-.6l.61-.52a1 1 0 0 0 .06-.36l.1-.02-.1-.09q0-.16.15-.25c.17-.06.44.06.5-.18l-.27-.28c.28-.2.57-.06.7-.1.5-.37.9-.68 1.11-.85l.8-1.28-.26-.2c.1-.2.44-.3.3-.57l-.33-.3v-.88l-.14-.09.1-.42-.27.02-.39.06-.04-.02.36-.6a2 2 0 0 1-.58-.58.1.1 0 0 0-.08-.1l-.25-.35.56-.7c.08-.06 0-.1-.08-.14q-.02-.04.01-.1a.1.1 0 0 1 .1-.04l1.01.39q.22.07.43.06c.13-.22-.16-.2-.28-.29l.25-.58.25.36.42-.45.26.33.24-.55c-.77.22-.77.21-.98-.3a.3.3 0 0 0-.22-.13c-.08.06-.2.19-.18.23.2.27-.08.27-.27.42v-.42l-.68.12c.27-.28.84-.43.38-.95q-.18.2-.32.42c-.07.2-.15.22-.38.13a1 1 0 0 0-.5 0c-.07 0-.14.04-.21.03q-.31 0-.56-.03l-.45-.27.2-.2-.2-.26.59-.12.07.55q.28-.2.54-.43.21-.25.38-.53l-.13-.1q-.17.05-.33.14a.8.8 0 0 1-.65.15c-.24-.03-.38-.1-.38-.32 0-.02-.07-.05-.11-.08l-.1.15-.1.61h-.22l.08.21-.5.08-.05-.3-.31.04q.22-.18.45-.28c.06-.04.11-.17.08-.2q-.2-.16-.4-.27l-.16.35-.53-.26-.04.06-.2-.52h-.1l-.14.95c.37-.12.68-.25.8.12l-.17.17.6.22c-.5.5-1.23.17-1.68.53-.1-.36-.35-.26-.62-.21v.31h-.06l-.1-.29-.1.03c.04.1.05.27.12.29q.28.04.55.01l-.19.55.02.02a.4.4 0 0 0-.36.07.2.2 0 0 1-.15-.14l.08-.1.24.1.18-.32-.47.05-.1-.28c.02.47-.47.6-.7.9l-.08-.05.17-.24-.9-.29-.1.65h-.1l-.06-.4H524l-.18.3-.34-.18.14.42-.08.01-.28-.36.03-.03-.1-.05-.26-.34-.01.18-.61-.33.25-.27-.64-.53v-1.64q.02-.05.1-.1l.46.18c.17-.2.5-.27.41-.71l-.64-.35h-.08l-1.25-.95v-.8l.37-.46c-.3-.37-.32-.43-.31-.74l.57-.17c0-.11.02-.2.04-.36l-1-.7a1.1 1.1 0 0 1 .26-.95l-.24-.25v-1.12l.63-.52v-.55l-.25-.22c-.17-.3.05-.54-.15-.67-.23-.12-.5 0-.56-.23l.3-.3c-.04-.24.08-.47-.18-.66-.3-.21-.17-.49-.1-.74l.26-.2v-.55l.67-.58v-.56l-.72-.3.33-.56c-.2-.21-.53-.33-.63-.7l.33-.36-.3-.27.32-.31-.58-.2c-.18-.22.13-.55-.16-.7l-.57-.11c0-.21-.08-.44.02-.56.32-.4.47-.9 1-1.16v-.54l.3-.3-.34-.34v-.75l-.27-.3.3-.24v-.55l-.3-.26-.1-.38c-.23-.1-.5.01-.57-.21l.36-.35-.31-.83.26-.04 1.67-1.37v-1.18c-.38-.25-.28-.64-.43-.96a3 3 0 0 0-.43-.59l-.48-.14v-.58l-.33-.28.34-.32v-1l.69-1.04v-.7l.63-.53v-.83c-.18-.16-.45-.28-.18-.83l.53-.24-.04-.6-.27-.23.6-.87-.36-.39.42-.55-1.2-.01c-.18-.2-.57-.31-.5-.67l.32-.3-.32-.28v-.45l.56-.9.48-.26v-1.72l.27-.22.07-.61.3-.25-.67-.26v-1.08l.7-.27c-.13-.11-.17-.17-.2-.17h-2q-.18-.16-.38-.27c-.15-.06-.43.06-.4-.27h1.42l.3-.24c.27-.15.67.1.89-.2.14-.27-.22-.37-.3-.56l.24-.24-.4-.42c-.45-.06-.85.12-1.22-.14l.67-.27v-.57c-.2-.25-.67-.35-.67-.73l.3-.42-.6-.18-.09-.65-.61-.5c-.08-.4.38-.53.6-.78v-.1l-.99-.37-.5.25c-.15-.28-.21-.7-.6-.75-.5-.06-.7-.4-1.03-.59h-.38l-.2.48c-.31.13-.65.03-.97.07s-.67-.12-.97.14l.7.27-.1.38-.89.08-.06.69-.57.17-.71.59.05.09.27.23c-.26.05-.28.35-.6.34l-.21-.5q-.12.04-.14.07l-.12.9-.33.34v1.69c-.42.12-.9-.1-1.19.08l-.4.65c.22.1.55.2.73.38.24.24.63.24.91.5l-.94.12c-.2.32.03.46.23.62-.15.31-.76.4-.6.99l.68.4c-.26.68.37 1.15.35 1.73l.61.18-.35.31v.54l.34.3v.53l.3.29-.34.33v1.9l-.26.2c-.07.32-.14.64.27.85-.2.37.56.47.36.84l-.33.3c.27.13.24.41.4.56.4.38.43.7-.03 1.05.12.35-.49.48-.37.85l.34.29v1.09l-.35.32.65.19v.89l-.23.24.43.67.49.13c.05.44-.04.84.03 1.16l.32.28-.66.26.29.29-.29.3.63.19.03.3-.34.3v.81l-.32.3.3.29-.27.21v1.74c0 .04.08.07.08.07l.52.1-.37.53.47.5-.33.34c-.18.3.05.55-.21.73l-.55.1c.03.3-.03.61.04.92l.3.25v.97l.5.79.58.14-.65.25-.45.81.41.5-.36.43v1.71l.5.09.48.38-.78.3.75.48v1.15l-.36.37c.13.19.33.36.37.56.05.26-.02.54.34.72l-.69.6c.1.37.5.68.4 1.1.54.28.15.77.4 1.1l.29.44-.38.35c-.07.3.08.62-.1.9l-.25.21v.8c.53.6 1.4.93 1.75 1.66l-.74.29.35.32v1.61l.3.3-.3.24.28.27-.63.9v1.32l.29.27-.42.54.79.44v.5l-.05.04-.07-.04.1-.16-.46-.07-.09.36-.31-.47q-.09.15-.04.31l.09.3c-.44-.34-.58-.33-.79.05l-.27-.03.24.27-.06.04-.5-.22.26.5h-.48l.08.11-.28.36.33.12-.14.3a.5.5 0 0 0-.6-.25l.35.48-.33.03c-.15.26-.19.5.16.67.06.03.01.2.01.3-.07-.29-.07-.29-.5-.15v.3l.24.03c-.02.1-.07.24-.04.25.42.14.1.23-.05.42l-.22-.48c-.14.08-.22.44-.06.52q.33.13.69.23l-.06.1-.52-.12.37.82.11-.23.43.2c-.26.22-.4.64-.24.78l.3.29-.38.62-1.2.46q-.4.33-.8.7c-.27.26-.31.67-.73.85h-1l-.31.25-.49.1-.11.45-1.13.06-1.17.97-1.27.48-1.2 1-.39-.29-.22.54h-1.37l-.42.3-.25-.22c-1.05.47-1.05.47-1.4 1.06h-.3c-.28.2-.49.44-.78.53q-.8.24-1.53.6-.73.37-1.43.77l-.34-.23-.98.8h-.3l-1.12.85c-.54-.07-.61.45-1.05.57q-.68.15-1.25.54h-1.12l-.34.39c-.68.2-1.12.26-1.45.44q-.52.3-.9.77c-.1.14-.08.3-.37.33-.25.03-.46.21-.7.26q-.33.03-.64 0l-.95.41-.12.4c-.84-.1-1.36.5-2.06.59l-.35-.25-1.18.54h-.9c-.43.52-1.25.58-1.66 1.09h-1.32l-.31.25h-1.34l-.66.54c-.7.08-1.42-.04-2.13.06l-.56.52-.37-.27-.27.23-.73.06-.3.19-.61-.26-.42.32h-1.01l-.46-.4.29-.29-.32-.29v-1.64l-.33-.29c-.13-.36.46-.49.36-.87-.06-.21.25-.47.3-.71q.04-.45 0-.89l.34-.28v-1.34q-.02-.05-.08-.1l-.22-.18.38-.56-.17-.11 1.13-.92V382l.27-.22c.09-.59-.04-1.18.06-1.71l.3-.25v-1.64c0-.04.07-.07.11-.1l.55-.16v-.58l-.3-.3.3-.25v-.8l.38-.39v-1.07l.65-.19-.35-.32v-1.64l.34-.3v-.53l.34-.32v-1.35l.28-.23.08-.59.33-.36v-1.6l.29-.23v-.8c.4-.22.3-.68.69-.89v-1.63l.3-.3-.28-.24.33-.33v-1.08l.3-.25v-.82l-.4-.41.39-.44-.3-.28c-.13-.31.28-.39.36-.76v-.62l.63-.52v-.55l-.29-.26.3-.47c.14-.28.33-.52.37-.85s.4-.6.6-.89l.03-.12c-.14-.36.28-.56.34-.86.05-.35.52-.43.64-.71l-.27-.27v-.73l.68-1.1c-.16-.25-.5-.35-.37-.64l.33-.3v-.53l.32-.29v-1.09l-.26-.26.33-.48-.37-.36.38-.35-.78-.45.36-.29c-.49-.2-.2-.61-.39-.91l-.6-.49v-.3q-.29-.06-.56-.18a5 5 0 0 1-.6-.48h-2.01c-.2.3-.67.23-.94.47q-.5.48-1.14.72c-.6.2-.8.79-1.12 1.25v.98l-.33.3v.53l-.35.3v.42c-.26.46-.48.8-.66 1.15-.05.11.01.26.02.36l.28.3-.3.24v.77l-.34.47-.3.45.28.26v1.1l-.3.26v1.07l-.39.4v1.59l-.29.23v2.13l-.69.99v1.22l-.6.96.27.29v.75l.33.31v.55l-1.23.95-.35.06c-.22.3 0 .45.26.65v1.39l.3.24c0 .22.11.45-.07.65l-.58.17v1.67l-.34.3v.77l-.37.45.28.39-.24.54q-.14.2-.3.38l.64.18-.4.44.35.45-.26.27.35.3-.72.4.63.98a.5.5 0 0 0-.28.58c.06.3-.45.4-.34.72.08.25-.09.43-.34.58v1.65q-.02.05-.1.1l-.57.16v.85l-.3.3c.18.2.51.3.6.64l-.82.05c-.53.33-.54.97-1.13 1.2v.59l.97.8-.32.29v1.36l-.34.3v1.64l-.35.32v2.4l-.33.43c.06.3.47.38.27.86a2 2 0 0 0-.46.31c-.2.2-.19.5-.45.68-.08.06 0 .27-.02.4l-.13.23-.44.08c-.27.34.13.75-.26 1.05h-.65c-.33.17-.45.54-.9.56l-.61-.28-.7.58h-1.53l-.3.24h-.44l-.54.57h-1.87q-.45.13-.9.31c-.22.13-.36.42-.6.47-.41.08-.73.31-1.13.41-.1.02-.16.15-.25.17-.17.03-.35-.03-.5.02q-.5.17-.98.4v.3q-.17.15-.35.26c-.32.14-.63.33-.98.4-.47.06-.56.56-1.06.56-.32 0-.26.2-.31.38-.04.11-.2.2-.32.32v.71l-.5.8-.45-.36a5 5 0 0 0-1.44-.48q-.15-.03-.27-.1 0-.14-.03-.29l.34-.3q.02-.03 0-.16l-.94-1.52.24-.26-.64-.53.34-.3-.67-.26c.23-.18.46-.34.27-.6l-.59-.17.45-.65-1.54-1.08c-.34-.42.35-.57.31-.87l-.24-.2.32-.29-.34-.3v-.8l-.3-.26v-2.3l-.56-.1-.43-.36.33-.4c-.13-.22-.3-.4-.36-.6-.07-.26-.48-.4-.35-.71.1-.27-.24-.38-.3-.52v-2.23l.27-.22v-.86l-.27-.3.3-.25v-.82l-.34-.3v-.53l-.33-.3v-.16l.25-.37-.71-1.2-.45-.12-.48-.85.54-.45h.37l.2-.46.65-.54v-1.38l.3-.25-.68-.27v-.82l-.35-.33v-.75c-.23-.31-.36-.62-.63-.81-.3-.23-.79-.27-1.02-.6v-1.65c.21-.26.58-.37.7-.74.08-.27.43-.49.67-.73l-.42-.68.39-.34v-.81l-.31-.29.32-.31c.27-.4-.2-.59-.35-.86.31-.43-.41-.62-.33-1.01l.69-.6-.66-.19-.06-.9c-.2-.17-.53-.31-.56-.5-.05-.29-.36-.44-.41-.7v-.37l-1.28-1.06c-.04-.01-.32.12-.35-.15l.57-.19c.18-.28-.06-.43-.27-.59l.4-.36c-.63-.04-1.09-.24-1.12-.78l-.97-.8v-.67l.1-.24.57-.17v-.58c-.32-.67-1.05-1.2-1.07-1.84l-.7-.76c-.41-.06-.72.08-.69.1-.33-.47-.09-.73-.33-.91l-.47-.1-.22-.5-.38.28c-.37-.03-.76.1-1.11-.09l-.22-.5q-.27.08-.48.17c-.09.04-.16.12-.25.15q-.23.07-.44.1v.31l.31.29-.32.29c-.06.23.12.48-.13.64l-.47.08c-.07.54-.58.76-.94 1.05-.28.05-.59-.1-.77.1l-.12.48-.63-.1.36-.35q-.08-.08-.13-.1h-3l-.38-.3h-1.2l-.4-.49c-.39-.1-.7.04-.9-.19l.28-.26-.44-.7h-.68l-.3.23-1.25-.53-.64.32c-.47-.13-.55-.54-.98-.58s-.56-.41-.93-.57h-1.99c-.54-.72-1.76-.65-2.3-1.37h-2.92l-.4-.56h-.7l-.44-.29h-1.63l-.23-.51h-1.11l-.88-.85h-2.08l-.4-.28c-.75.16-1.32-.32-2.02-.33-.08 0-.16-.12-.25-.2h-1.32l-.7-.54-.36.24c-.05-.05-.13-.08-.13-.11v-.54a2 2 0 0 0-.92-.51c-.39-.1-.35-.53-.6-.75l-.35.27c-.27-.04-.57.1-.8-.12l.66-.59v-.52l.28-.27-.33-.44.33-.42v-.84l-.28-.24.31-.28-.32-.29v-.54l.31-.3-.25-.2c-.04-.26-.21-.53.12-.74.26-.05.55.1.78-.1l.1-.65c.4-.13.84-.2 1.15-.41.37-.24.71-.5 1.08-.63l.18-.41h.71l.36.26.36-.6.84.35.5-.26.28.23h1.34l.35-.26h.66l.23.17c.6-.2 1.2-.2 1.66-.48l.54.3h.89l.36.26q.47.04.91-.14c.43-.21.87-.55 1.45-.38l.34.24h1.6l.58-.3.53.28.28-.23c.48 0 .97-.03 1.38 0l.3.27h1.01l.32.23 1.07-.49h2.68l.33.27h1.9l1.2.54h1.23l.42.32 1.47-.62.92.44q.08.25.17.4c.35.04.64.02.96.17q.8.37 1.67.67c.26-.06.37-.37.76-.27l.34.24 1.04.05.3.24h1l.21.17c.5.26.6-.08.83-.13l.43.3c.22-.11.43-.3.66-.31a1 1 0 0 0 .65-.38c.2-.26.6-.15.84-.37.2-.18.19-.4.33-.58q.15-.18.36-.29c.16-.09.5-.11.53-.2q.1-.25.25-.48.22-.45.6-.76.22-.22.34-.51l.5-.12v-.9l-1.64-1.34c-.05-.32.04-.54-.2-.74-.17-.13-.23-.35-.34-.51-.3-.05-.61.09-.82-.15v-.27a4 4 0 0 0-.81-.38c-.27-.06-.52-.11-.7-.3-.35.2-.46-.34-.79-.21-.1.17.03.38-.3.46-.23-.5-.86-.52-1.3-.78l-.29.23-.36-.27h-.98l-.35-.26h-.66l-.36.24-.98-.8-.35.26-.36-.27a1.7 1.7 0 0 1-1-.22l-.36.23h-.9c-.24-.07-.35-.38-.7-.28l-.53.34-.52-.32-.34.24-.25-.2-.86-.14-.12-.43-.8-.08c-.3-.18-.43-.47-.9-.52l-.81.58h-1.96l-.6.5h-.76l-.29-.23-.31.23-1.04-.46-1.12.5h-.84l-.52.32-1.27-.59h-.88l-.55.3-.67-.33c-.36.08-.45.4-.83.29l-.35-.26-.34.26h-.66l-.36-.26-.3.26h-2.69l-.3.24c-.58.44-.86-.32-1.36-.24l-.34.25-1.06-.48-.35.23h-.54c-.16 0-.32.02-.3.02l-1.26.53h-.19l-.7-.54h-.65l-.35.24-.4-.27h-.96l-.29-.24-.34.24c-.26 0-.53.1-.78-.06l-.18-.44-.5-.08-.1-.69-.45-.34-.37.24c-.17-.22-.43-.3-.49-.57-.04-.2-.3-.36-.46-.53-.28.06-.58-.09-.81.1l.26.39c-.17.03-.32.1-.36.06-.54-.43-1.31-.6-1.91-1.2l-.43.56-1.22.3-.18-.15-.9.62v.8c-.42.35-.4 1.04-1.24 1.08-.05 0-.05.26-.13.36-.26.32-1.16.65-1.97.7l-.44.5h-1l-.65-.3-.45.32h-2.13l-.3-.07-.24-.2h-1.3l-.53-.34-.52.29-.51-.27-.53.28-.28-.22c-.37 0-.76-.1-1.11.05l-.25.2h-1l-.43-.33-.56.26q-.3-.12-.62-.2c-.2-.04-.43.05-.57-.17l.66-.26c-.25-.23-.55-.09-.82-.13l-.35.27c-.17-.56-.77-.84-1.18-1.25l-.01-.27c-.53-.29-1.2-.35-1.62-.78-.14-.24.12-.57-.24-.75s.13-.63-.33-.77l-.35.22-.45-.4.37-.36-.39-.56q-.17-.28-.28-.51l.32-.25-.48-.1c-.2-.02-.44.04-.57-.17v-.14l-1.23-1-.3.19-.64-.52h-.98l-.33-.25-2.23.93v.29c-.6.33-.71 1-1.32 1.34l.32.3v.48l-.63.91.27.28-.68.56v1.13c-.63.33-.68.97-1.24 1.28-.52.3-1.16.4-1.61.72h-1.33l-.29-.23-.36.24h-.66l-.33-.25-.36.27h-.98l-.39.28h-3.66l-.31.26h-2.35l-.3.24c-.37.06-.76.13-1.06-.26h-1.36l-.34-.27c-.33.1-.73-.1-1.08.11l-.2.47-.37-.26-.3.2-.6-.27-.43.3q-.69.04-1.36 0l-.32-.25-.34.27h-.66l-.35-.26h-.66l-.35.24h-1.36l-.33-.27h-2.16l-.77-.3-.41.32h-1l-.38-.3-.48.11.37.34-.38.12c-.31-.05-.4-.38-.8-.27l-.35.26h-1.63c-.23.13-.37.38-.63.3l-.58-.35-.6.35h-.8l-1.14.48-.43-.25-.87.36-.36-.62c-.25.01-.56-.05-.67.05-.44.34-1.07.36-1.52.67q-.18.09-.37.14l-1.14-.55-.32.24h-1l-.27-.22-1.2.5h-1.17c-.25.32-.78.26-1.08.54-.1.1-.42.02-.62.02l-.33-.25h-1.72c-.04 0-.08.06-.1.07l-.16.63c-.33-.63-.97-.69-1.4-1l-.33.26c-1.02-.57-1.02-.57-1.3-1.08l-1.14-.05c-.25-.35-.57-.67-.71-1.02-.11-.3-.33-.56-.59-.57-.54-.03-.6-.52-1.31-.62h-.7l-.6-.52c-.27.05-.57-.1-.8.1l.3.43h-1.54l-.31-.2-2.2 1.8v.5l-.85.37-.32-.24h-.55l-1.3.56c-.33-.04-.4-.39-.72-.3-.28.08-.38.4-.8.27-.25-.44-.92-.49-1.36-.8-.58.07-.98-.27-1.43-.42l-.12-.42c-.19.03-.38 0-.48.08-.17.11-.32.25-.58.2l-.53-.34-.53.35h-.63l-.35.24-.36-.23-.29.25a1.4 1.4 0 0 0-.66-.3c-.22-.01-.36-.33-.82-.2l-1.05-.87q-.34 0-.64-.14l-.11-.38h-.8l-.37.3-.1-.09.2-.5-.42.24-.23-.32-.06.02-.25-.26h-.03v-.52c-.47.15-.47.14-.78-.22q-.22-.21-.45-.38l.02-.21-.2.1-.77-.67-.07.04.08.41-.32-.05-.24-.6h-.7l-.06.12-.24-.4-.57.23-.16-.39-.18.44-.19-.29-.08.17-.05-.2h-.24l-.15-.14.02.15h-1.42l-.34.2-.38-.22-.22.54H262l-1.59 1.28v.36c-.15.4-.53.47-.6.76l.17.13q-.15.17.05.39l-.03.04-.24.07h-.25q-.04.01-.08.1h-.03l.02.02q-.02.05 0 .08.11.15.27.26l-.25.23v.06a.2.2 0 0 1-.2-.09c0 .12.02.32.05.32h.15v.1q.08.24.27.39a.7.7 0 0 1-.54.55l.69.2-.33.22.06.09.47-.21-.15.8.23-.04.04.06-.38.2.14.63.3-.44.17.56.23.03q.43 0 .25.35c-.04.08.01.21.08.3q.2.25.42.47c.18.04.47.05.52.15.13.27.45.27.67.4q.63.38 1.3.7.58.27.4.77v.22c.03.38.11.77.08 1.14q-.16 1.45-.35 2.91c-.07.57.17 1.06.56 1.5a1 1 0 0 0 1.02.38q.74-.16.82-.75.03-.48-.04-.95c-.04-.42-.2-.86-.15-1.27a39 39 0 0 1 .6-3.28c.26.07.48.25.74.31q.6.15 1.05.54c.31.28.8.25 1.06.52l.4-.28 1.05.43.14.4 1.1.06.3.24H274l.38.3q.16-.03.32 0 .06.02.12.08l.12.43h1.37l.46.32h.9l.48.25.39.12.03.31.92.4h.59c.29.43.88.55 1.37.78l.26-.22q.18.1.33.25.2.27.36.56h.34l.49.4-.37.34.44.07c.45-.09.06-.51.55-.48l.15.76h.72c.23.13.36.39.7.29l.35-.26c.61.5 1.84.4 1.94 1.29.2.13.5-.04.51.25l-.56.19.33.57.95.53v.84l-.37.44c.22.32.38.58.41.9q.1.4.4.68c.27.24.18.63.58.78v1.1l.33.3c0 .8 0 .8-.13.91l-.45.08c-.24.4 0 .7.22.95v3.58l-.63.52.32.3v1.64c-.4.26-.34.77-.84.96h-.35l-.29-.5-1.09.47-.6-.5h-.98c-.26-.32-.8-.26-1.06-.54l-.4.28q-.21-.07-.41-.17l-.27-.14q-.22-.07-.43-.11v-.31q-.01-.05-.16-.15h-1.34l-.29-.23-.76.35-.57-.69-.34.29h-1.7l-.46-.29h-.94l-.29-.24h-2q-.03 0-.18-.13l-.17-.14h-2.05c-.12-.23-.47-.2-.64-.32-.28-.2-.57-.2-.9-.25-.23-.03-.44-.2-.62-.3l-.78.37q-.51-.15-1.04-.17c-.02-.02-.08-.05-.07-.07.06-.19.11-.3-.8-.27q-.54.01-1.08-.03l-.04-.04h-.26q-.6-.07-1.2-.28c-.3-.1-.83-.15-.85-.33a2 2 0 0 0-.54-.04q-.66.21-1.36.2l-.27-.13h-.92l-.06-.05.03-.02h-.05l-.27-.19h-1.34l-.19.17q-.6-.1-1.14-.4l-1.16.42-1.42-.14-.04-.05h-.04l-.08-.17-.4.16a1 1 0 0 1-.5-.2c-.18-.17-.55-.22-.8-.31H252q-.34-.15-.7-.17l.18.4h-.91l-.53-.34-.18.12-.3-.09q-.42-.16-.59.04l-.22.28h-.2l-.36.24-.18-.11.45-.2-.71-.08.23-.21-1.56-.08-.07.07.72.2-.17.05-.48-.1c-.2.16-.31.25-.51.27l-.1-.07h-.87l-.1-.01-.04-.02 1.34-.13-.07-.08-.36-.01c-.33.17-.8.08-1.04.02-.41-.12-.55-.08-.63-.02h-.76l-.07-.04a7 7 0 0 0-2.08-.06 7 7 0 0 1-.8.04l-.17.08-.04-.03c-.35-.05-.7.09-.98-.03q.15-.07.26-.17c.05-.06.01-.13.01-.21h-.48q0-.07-.04-.16l-.25.16q-.5 0-.67-.22-.3-.03-.6 0l-.22.09-.02-.02h-1.87l.54-.24-.95.03-.08-.05-.04.06h-.03l.01.02-.1.14-.06.14-.77-.18-.01.1h-.62l-.48-.32h-1.46l-.7-.3-.42.33h-.66l-.37-.28h-.6l-.53-.31-.55.27-.31-.2h-1.56l-.7.29-.42-.32-.41.32-1.45-.62h-2.74l-1.88-.8h-.55l-.35-.27-.33.23c-.63-.44-1.57-.45-1.95-1.04l-.5-.09-.15-.44c-.6-.18-1.3.09-1.89-.14l-.1-.41c-.65-.17-1.34.1-1.91-.14l-.11-.44h-1.14l-.28.23-.36-.25h-.65l-.35.26-.34-.25-.35.24-.62-.5-1.07-.05-.3-.26-.32.57h-.6q-.57.3-1.17.53c-.18.07-.42.01-.66.01-.1.24-.46.3-.44.58 0 .08-.1.22-.13.22-.54-.02-.71.39-1.05.58-.54-.11-.42.3-.57.48q-.12.12-.25.2v.54l-.67.58v.8l.3.3c-.6.8-.6.8-.64 1.34l.32.3-.32.29c.06.21-.12.46.14.66.18.03.43-.02.59.33.06.14-.32.23-.4.43-.1.49.36.8.53 1.19.26.04.56-.1.8.13v.53l.67.58-.33.3c.06.23-.11.47.17.66l.35-.27c.49.2.44.7.84.96v.56l.85.68c.23.06.53-.09.8.12l-.26.28c.12.4.64.37.96.56.38.23.34.63.63.87l-.3.24 1.01.84c-.08.45.54.54.67.88.14.36.47.68.39 1.09.86.6.99 1.53 1.5 2.08.28.46-.05.84.4 1.16.3.22-.16.7.25.98l.33-.23.53.38-.67.27v.74l.6.95-.32.35.68 1.03c-.17.14-.43.27-.25.58.17.05.44.06.53.17.2.23.53.11.72.27l-.31.42.46.83.43.09.83 1.37v.58l.37.54-.38.36v.69l1 .65-.32.33.29.24-.3.29c.21.19.59.37.62.58.04.34.5.49.4.84.6.36.21.75.04 1.13l.58.17.04.67 1.1.17-.93.36.9.5-.22.38-.51.1c-.01.2-.11.38.18.45.23-.2.47-.4.8-.1v.55l-.5.4h-1c-.18.16-.35.36-.68.28l-.36-.28h-.97l-.33-.23-.54.27-.5-.27h-1.03l-.29.23-.36-.27h-.65l-.37-.28h-.89l-1.19-.55h-2.17c-.23 0-.56.08-.65-.01-.34-.31-.8-.2-1.19-.34q-.14-.06-.25-.2h-2q-.06-.02-.12-.08l-.2-.47h-1.36l-.38-.28h-.66c-.23-.37-.68-.22-1.03-.3l-.6-.5c-.22.08-.34.37-.68.26l-.7-.55c-.28-.05-.59.1-.81-.13l.5-.46c-.75.21-1.14-.17-1.61-.26-.27.12-.4.4-.94.24l-.27-.31c-.61-.31-1.04-.03-1.34-.3l-.1-.38-.95-.15v-.6l-.34-.3v-.71l-.49-.78-.46-.75.62-.18v-.3l.67-.59-1.35-.5v-.86l-.3-.26v-1.66l.3-.28v-.54l.35-.3v-.53l.3-.3-.27-.27.3-.31v-.84l1-.66v-.94l-.7-.24.7-.58-.33-.3v-.95l-.72-.41.18-.43.44.32.17-.78.6-.17v-.59l-.32-.28.31-.28c-.25-.2-.54-.4-.19-.66l.48-.08c.08-.35.18-.67-.3-.91l.11-1.17c0-.02.08-.03.1-.04l.41.27c.03-.2.07-.32.07-.45v-.55l-.06-.36-.5-.1c-.17-.46-.57-.86-.45-1.38.02-.06-.1-.14-.15-.22h-.56l-.92-.4-.07-.6-.3-.24v-.82q1.11-.32 1.52-1.25h.33l.49-.4-.31-.28.3-.29-.35-.32v-1.9c0-.04-.07-.07-.11-.1l-.36.26-.45-.75.7-.2-.75-.3v-.56c-.25-.14-.4-.33-.33-.58s-.25-.37-.33-.57l-.24-.49.28-.47a2 2 0 0 0-1.03-.65v-.54c.25-.17.4-.45.81-.42.06 0 .15-.2.2-.28-.16-.39-.76-.48-.69-.93l.33-.3-.26-.22c-.15-.29.06-.54-.2-.7l-.45-.09c-.21-.29.1-.69-.37-.87 0-.22-.1-.5.03-.64q.21-.26.27-.6c.05-.25.24-.47.36-.67l-.7-.63c.35-.2.85-.2.99-.61.09-.34-.18-.58-.34-.85v-.7c-.36-.21-.27-.66-.67-.87-.02-.01 0-.1 0-.14v-.12l.27-.25-.9-1.45.26-.21-.62-.9v-1.05l.33-.35-.58-.1c0-.18-.44-.17-.38-.45l.6-.17v-.58l.32-.29-.34-.32.3-.58a.4.4 0 0 1 .19-.05c.08.01.16.1.24.16l.06-.05-.17-.34.4.16-.2-.33-.17.12-.19.06-.03-.26c.25.1.36.04.58-.3l.08.37c.04-.22.67.1.47-.32l.5-.11-.62-.18.25-.5.09.02.04.45.33-.44.3.06-.14-.63-.36.26-.07-.07.67-.36.17.36.21-.45c-.14-.12-.39-.23-.38-.33.05-.41.16-.47.61-.47l-.1-.52.81-.36q-.03-.23-.1-.44c-.01-.04-.08-.08-.13-.11l.24-.97-.52.04-.01-.17-.34.08.09-.2-.42-.17v-.1c.33.09.68-.07.84-.37-.47-.29-.64.14-.95.24l.25-.32-.6-.1.44-.11-.36-.09-.2-.54-.38.02.22-.26-.37-.12.22-.54c-.44.1-.63-.47-1.06-.17l.15-.43-.1-.04-.34.17-.04-.44-.37-.12-.25.27-.2-.65h-.2l-.23.3q-.15-.07-.27-.16-.18-.17-.38-.29a.3.3 0 0 1-.2-.14q.03-.15 0-.3l.27.1v-.26l.02-.2-.4.2-.13-.06a1 1 0 0 1-.16-.35c0-.18.14-.36.22-.55l-.28-.37c-.05.07-.09.17-.13.17-.07 0-.21-.03-.23-.07-.07-.23.15-.57-.37-.63l-.02-.03-.46-.45.17-.1-.05-.09-.18.06-.21.1c.06-.16.06-.16-.18-.77-.2-.04-.38-.04-.47-.1a.6.6 0 0 0-.56-.12c-.48.08-.53.03-.66-.4-.04-.15-.15-.28-.4-.15q-.18.08-.38.12l.03-.15c-.16.03-.34.13-.47.1-.24-.07-.43-.09-.63.07s-.25.02-.26-.08h-.34l-.53-.15c-.3-.08-.76 0-.89.14q-.15.15-.33.27-.3.28-.61.54h-.07l-.14-.15.16-.02.2-.05-.11-.08.08-.29-.86.1.4.54-.1.05-.14-.23-.25.08c.09.23.24.45-.08.63l-.24-.25-.44.6.38-.09.05.07a2 2 0 0 1-.45.28l-.52.44-.08-.07-.07.29-.84-.15-.34.29.45.15-.45.48q.18.09.31.21.22.33.4.65l-.5.02-.01.07.52.1c-.29.13-.7.11-.6.41l-.37.08c.21.16.35.28.5.37.28.16.04.3 0 .43l-.37.04v.09l.55.1-.02.06h-.3l.32.14-.08.02.23.75.4-.23c.16.23.12.73-.08.79-.13.03-.32-.06-.56-.12q.13.2.22.42.06.26.06.52c-.4-.38-.4.08-.7.08l.35.15-.1.31-.12-.2-.31.2.1.47-.3-.14-.07.04.16.25c.04.04.1.1.1.14q-.16.36-.37.7c-.06.08-.23.12-.35.19l.18.33.1-.18.13-.2q.1 0 .17.06c-.02.08-.04.22-.1.24-.48.1-.27.42-.36.65l.31.05c.48.06.44.46.67.68.1.09.12.26.23.32q.4.2.3.58l.57.19-.01.16.27-.03.22.23q.19-.08.24-.02l-.24.22v.52l-.33.3v1.02l.62.94-.32.32v1.9l-.62.18v.84l-.35.32v.53l-.34.3v.82l-.35.3v.53l-.3.3c.24.27.71.37.65.78q-.59.65-1.44.9l.6.13.47.7v.86c-.55.22-.6.73-.96 1.04v.81l.34.32v1.06l.31.32c-.74.4-.83 1.12-1.31 1.62l.31.3c.05.38-.62.58-.33 1l-.67.99v.71l-.41.44.41.46c-.6.22-.68.76-1.05 1.2v1.13l-.35.62c-.13.29-.6.39-.62.8l.35.41c-.07.2.1.44-.17.62-.29.17-.12.42-.18.63-.06.2-.42.3-.34.57.08.28-.08.44-.32.58v2.98l-.69.98c-.05.25.17.58-.12.85l-.5.09c0 .14-.05.3.02.39.11.14.34.24.26.5l-.35.34v1.13l-.97.14v.87l-.35.3v.55q-.62.2-1.27.32l.22-.38c-.38-.16-.77-.07-1.12-.07q-.18.16-.4.25c-.2.05-.44 0-.64.06-.15.03-.25.19-.4.22q-.32.03-.66 0l-.57.83h-1c-.18.26-.55.25-.8.39-.02 0 0 .06.02.09l.24.2c-.35.37-.47.88-.99 1.12q-.03.22.01.45.12.23.28.41c-.23.26-.68.37-.62.78l.34.3v.84c.26.1.29.32.38.54s.47.32.57.58l-.26.21.97.71v.94c-.07.17-.45.22-.17.44h.69l.47.4-.26.26.43.7.4-.27c.45.88.86 1.78 1.79 2.34v1.08l-.37.47.3.39-.3.5.38.35v.54l.4.35-.76.45v1.17l-.6.2c.02.24-.24.52.16.71l.46-.78v1.2l-.33.31v1.35l-.3.3v1.08l.29.3-.3.24.3.3-.67.57v.54l-.3.25v1.15c-.23.58-.72 1.07-.77 1.69q-.5.13-1 .05l-.93-.4c-.06-.21.12-.46-.15-.67l-.33.24-.47-.62c-.16-.21.13-.56-.16-.7l-.53-.11-.08-.67-.62-.18v-.3l-.69-.6v-.53c-.6-.36-.73-1.01-1.3-1.37-.1-.06-.06-.24-.09-.35l-.5-.1c-.27-.51-.52-1.03-.84-1.52a.8.8 0 0 0-.63-.39c-.12 0-.23-.12-.4-.22l.4-.47c-.24-.2-.66-.2-.9-.46a6 6 0 0 0-.75-.63v-.54a2 2 0 0 0-.43-.36c-.3-.13-.16-.42-.3-.55-.32-.17-.72.1-.93-.23l.75-.3-.6-.11a2.2 2.2 0 0 0-1.5-1.22l.28-.25-.45-.71h-.34l-.82-.7.31-.27-.86-.71-1.37-2.31-.42-.24c-.1-.4.15-.75-.16-.99l-.5-.08-.09-.7c-.39-.07-.86-.19-.91-.48-.07-.43-.52-.56-.71-.87 0-.14.06-.3-.01-.4-.21-.3-.26-.7-.62-.9-.4-.21-.3-.68-.7-.86.12-.5-.71-.56-.7-1.01 0-.07-.09-.15-.14-.23h-.33c-.4-.45-.5-1.04-1.05-1.44q-.37-.31-.46-.8c-.09-.38-.7-.42-.71-.87-.01-.22-.32-.4-.34-.7s-.26-.55-.35-.72l-.98-.55v-1.02l-.48-.86-1.53-1.25v-.5l-.49-.4h-.33l-.47-.4c.11-.46-.35-.79-.47-1.2l-.57-.16v-.5l-1.04-.7v-.8l-.62-.2v-.54l-.1-.12c-.2-.3-.66-.27-.92-.5.13-.35-.46-.48-.39-.83.02-.08-.2-.21-.33-.28-.17-.1-.4-.12-.56-.21s-.3-.28-.49-.38a3 3 0 0 0-.57-.16v-.3c-.8-.56-1-1.4-1.54-2.08l-.33-.03c-.3-.54-.81-.98-1.1-1.5l.26-.28c-.27-.2-.56-.06-.82-.13q-.25-.19-.48-.4l.32-.28c-1.42-.55-1.42-.55-1.86-1.24h-.3l-.85-.67.32-.3c-.38-.22-1-.2-1-.75-.36-.38-.45-.91-1-1.15v-.56l-.3-.3.8-1.24.35.25a.6.6 0 0 0 .03-.77c-.5.23-.55.23-.86.06l.6-.5v-1.43l-.26-.22.44-.64-1.13-.76c.07-.58-.5-.94-.45-1.16l-.67-.9-.8-.04-.23-.51h-.68l-.38-.29h-.65l-.37-.28-.32.56-.36-.03-.3-.53-.66.54h-1.15l-.75-.79c-.43-.07-.74.07-.95-.15l.33-.32-.69-.2c-.3-.12-.48-.74-1.2-.75l-1.3-1.08h-.66l-.36-.28-.44.34q-.31-.36-.5-.62c-.47.02-.83-.05-1.06.3h-1.5l-1.66.64-.09.63-.61.5v.54l-.35.31v.8l-.31.3c-.13.53.49.9.37 1.39.31.26.68.48.69.86l.6.17V343l.7.39v.86l.25.22c.04.25.22.52-.1.7-.37.17-.47-.16-.65-.2l-.8.6-.17.46h-.84l-.72.75-.67.18v.32l-.65.25-.1.4-.84.08c-.11.5-.57.76-.97 1.07h-.79l-.44.52c-.64.07-1.14-.08-1.6.14v.58l-.96.4c-.1.04-.26.04-.29.1-.11.19-.11.41-.36.56s-.37.36-.6.48.08.48-.35.48l-.21-.18-.6.5H83.6l-.35.26-.4-.28c-.05.16-.04.32-.14.45-.2.26-.67.41-.67.84 0 .03-.07.1-.1.1-.55-.05-.68.47-1.07.54-.34.06-.44.13-.48.4-.03.2-.43.3-.33.53l-1.15 1.01-.4-.29-.13.4.45.4c-1.23.01-2.04.7-3.07.95l-.11.42-.67.12-.36.47-.81.04c-.12.52-.57.78-.98 1.09h-.79l-.44.53-.86.03-1.23 1.1h-1.7c-.03 0-.07.07-.12.1l.31.3-1.18.96h-.32c-.31.17-.53.47-.61.82h-1.72l-.66.54-1.1.05-.22.52h-.44c-.22.47-.87.52-1.34.79l-.22-.18-.84.57c-.12.34.06.6-.24.75h-.32l-.35-.25c-.1.07-.16.16-.26.2-.24.08-.52.08-.7.3-.04.04-.2.03-.3.04q-.26 0-.45.03l-.4.69.27.28-.62.18-.1.4-.58.16c-.08.17.09.4-.24.42-.3-.06.1-.5-.4-.45l-.14.76H52.8c-.46.32-1.1.4-1.4.85h-1l-.98.8h-.65l-.73.57h-.65l-.49.4v.27l-.96.43h-.89l-.79.65c-.4.35-.7.2-.94.48-.28.33-.79.46-1.24.5-.46.04-.75.3-1.15.4s-.28.55-.6.72l-.33-.02-.14-.23-.17-.33-1.3 1.1c-.53.05-.88.46-1.4.32a3.4 3.4 0 0 1-2.08.88l-.24.2H34l-.36.28-.34.02-1.54 1.27-1.07.4-.42-.3c-.38.43-.92.65-1.46.8-.34.11-.6.27-.67.52-.11.4-.55.55-.8.84l-.64-.28-.7.86c-.33.07-.63-.08-.86.12l-.15.44-.64-.33c-.27.22-.48.55-.73.57-.69.08-.8.52-1.05.89h.01c-.7.11-.75.58-1.23.55-.3-.06-.45-.45-.85-.22l-.2.46-.5.09-.17.77h-.72c-.25.19-.48.5-.75.52-.36.03-.5.33-.86.32-.3 0-.67-.15-.93.13v.3q-.3.06-.57.17-.32.22-.6.49h-1l-.28.2c-.35.15-.66-.04-.87.17l-.1.4-.9.12c-.1.2.07.42-.27.44l-.24-.2-.12.03c-.07.26-.17.55-.48.65-.67.22-1.15.71-1.84.89l-.37-.25-.09.73-.46.4-.3-.23q-.34.11-.6.23-.27.16-.54.26-.33.04-.64.01l.15.18-1.3.84v.87l-.28.13-.02-.04-.2.14-.47.22v.43l-.19.1-.16-.04-.04.16-.2.1-.05.17a.55.55 0 0 0-.62.25 6 6 0 0 1-.5.72l-.23-.13c-.47.18-.7.5-1 .74l.3.28-.27.2.15.24q-.15.23.13.52l-.08.19-.05.04-.07-.04a1 1 0 0 0-.56-.04c-.07.01-.18.23-.14.28q.2.27.49.44l.08.04v.01l-.29.26c-.2.05-.4.08-.53-.09 0 .17.03.44.07.45q.45-.02.9-.11h.02a1 1 0 0 0-.26.5l-.18.06-.17.72c-.23.07-.52-.08-.52.21l.14.04-.11.04.54.17-.35.34.95.62-.09.44.2-.04v.16l-.36.18.2.9.43-.62.22.8.33.03q.1 0 .19.03v.17l.23.1-.07.2c-.06.1.02.3.11.42q.29.35.6.67c.25.06.67.08.73.2.2.4.65.39.96.57q.9.53 1.86 1c.56.26.7.6.56 1.1a1 1 0 0 0 0 .3c.04.55.15 1.09.1 1.62-.12 1.38-.33 2.75-.5 4.13-.1.8.26 1.5.8 2.13.34.45.9.66 1.45.53q1.06-.21 1.16-1.07.04-.68-.05-1.34c-.07-.6-.3-1.21-.22-1.8.17-1.43.45-2.86.74-4.28.14-.77.61-1.45 1.3-1.83q.1 0 .21.05l.25.2.34-.25.35.25.98-.8h1.68l.33.25.35-.26h4l.36.25h1.67l.3-.23c.25.37.76.14 1.1.31q.6.34 1.27.52l.33-.58.36.26h.65l.46-.31H29q.05-.02.11-.1l-.68-.29c.28-.2.57-.1.84-.13l.34.25 1.08-.49.22.2.64-.26.42.3.35-.26h.65l.35.27H36l.35-.24.42.28 1.28-.55.32.24H39l.35.26.49-.4-.32-.28c.32.07.67-.4.95.03l-.27.27q.11.1.16.11c.53-.06.96-.3 1.44-.56h.9l.36-.24.33.28h1.42l.54.53.36-.25.5.38-.32.3c.05.03.1.1.13.1h1.03l.5-.31.52.31.39-.28.45.13-.33.31 2.22.92.38-.28 1 .25c.37-.25.37-.24.8 0l-.33.5q.06.1.12.11h1.82l.47.59.33-.27c.4.09.52.57 1.04.5l.49-.36.5.66h.97l.63.3.47-.33c.38.57 1.3.57 1.65 1.1h.58c.26.05.4.25.69.31.32.07.58.36.88.56l.75-.33.84.6c.56-.15.87.32 1.5.34l1.19.98.55-.46c.65.82.94 1.07 1.3 1.07l.41-.22q.46.18.86.37c.26.14.4.46.8.4l.19-.2q.08-.18.13-.37c.57.25.52.82 1 1.08.5.15 1.08-.11 1.51.15l.14.44h1.03c.38.02.77-.07 1.15.07l.4.35c.05.26-.12.52.18.67l.35-.25.48.4-.32.28q.06.08.13.1.16.03.33.03l.4-.29c.38.6 1.21.63 1.78.97l.1.36c.38.17.55-.03.75-.2l.71.55h.88c.38.16.73.22.92.4.3.3.79-.04 1 .23l.11.4c.44.17.91-.1 1.27.22l-.64.26c.65-.07.74.52 1.18.66l.24-.2c.42.07.53.57 1.04.5l1.04.81.23-.15.94.58-.31.26q.35.22.74.37a6 6 0 0 0 .86.14l.12.45c.7-.34.77-.34.95.04l-.67.34c-.04.5.2.5.55.45l.2-.47c.32-.06.64-.17.91.08l-.32.29q.26.18.48.4.58.66 1.4 1.06l.32-.2.64.52h.67l.36.27c.26.05.56-.1.8.13l-.3.29c.37.23.54.68 1.13.69l1.13 1.01-.25.23c.28.23.59.14.9.07l.23-.54.28.49.78.36.35-.24.24.5.55.16c.06.25-.11.5.14.68l.45.1.22.5.44-.34.54.58c.5.07.9-.13 1.23.15v.28l.48.39c.23-.07.35-.36.67-.25l.36.26.45-.33.48.6.9.04 1.23 1.03.31-.2.28.22h.74l.27-.23c.2.12.41.23.47.44l-.24.2.07.13h1.1l.35-.24c.36 0 .66-.02.94.23.18.17.55.21.88.33h.8l.36-.28h.62l.53-.33.6.32.11-.4c.46-.15.84-.5 1.43-.43.06 0 .15-.1.22-.17.06-.21-.12-.46.13-.62l.61-.1c-.19-.26.1-.55-.24-.76-.35-.2-.03-.53-.23-.74l-.6-.5c0-.17.07-.4-.02-.54-.13-.19-.34-.32-.36-.58 0-.07-.39-.1-.54-.2-.2-.14-.4-.27-.45-.54a.8.8 0 0 0-.52-.46 1 1 0 0 1-.67-.35c-.2-.25-.63-.15-.82-.38-.22-.28-.57-.4-.92-.48l-.2-.48h-.5l-.52-.55h-1.06c-.23-.18-.4-.42-.63-.49-.24-.07-.51-.11-.67-.31h-.67l-.34-.25-.47-.1-.14-.46-1.11-.05-.95-.78-.77-.05-.2-.5c-.36-.08-.66 0-.99-.18-.32-.2-.7-.4-1.03-.6s-.82-.32-1.17-.45l-.17-.44c-.62.12-1.1-.16-1.5-.4-1.15-.63-1.18-.69-2.35-.76l-.1-.4c-.18-.19-.65-.05-.79-.36-.45.17-.57-.46-1-.3l-1.15-.92-.15-.47c-.25.15-.4.37-.73.28l-.48-.33-.55.32-.47-.38c-.07-.21.1-.46-.15-.67l-.34.23c-.35-.1-.42-.5-.87-.53-.44-.02-.52-.44-.9-.55h-.5c-.18-.08-.36-.26-.53-.26-.57.02-.63-.68-1.23-.56l-.72-.57h-.65l-.61-.5c-.35-.08-.8.06-1.03-.29-.44.14-.57-.44-1.14-.26l-.97-.9h-1.33c-.52-.69-1.63-.66-2.22-1.28-.1-.11-.37-.12-.53-.17l-.1-.4c-.38-.14-.84.07-1.07-.3-.38.02-.56-.23-.82-.39q-.48-.27-.99-.48h-1.41c-.4-.14-.67-.2-.88-.31a5 5 0 0 1-.63-.5h-.6l-.64-.56h-.66l-.79-.34-.2.18-.4-.64-1.14-.09c-.04 0-.07-.07-.06-.06l-.13-.4c-.43-.1-.88.08-1.24-.16l.3-.32c-.27-.2-.56-.06-.8-.12l-.39-.28h-.98l-.96-.79q-.07-.03-.16-.02c-.32-.03-.66.06-.97-.08l-.24-.2h-.8l-.48-.52h-.73l-.34.22c-.3-.19-.53-.43-.82-.48-.32-.06-.47-.42-.86-.3l-.55-.57h-1.42a4 4 0 0 0-1.8-.6l-.6-.49h-.85l-.44-.54c-.7-.06-.7-.06-1.69-.52q-.15-.04-.31-.04c-.42.26-.61.28-.84.1l.32-.27-.46-.37c-.44.07-.01.5-.48.49l-.2-.47c-.4-.06-.83.05-1.06-.3l-.46.33-1.1-.92h-2.23l-.9-.8-.36.27c-.37.1-.47-.21-.81-.3h-1.44l-.64-.29-.43.3c-.26-.28-.77-.23-1.06-.5-.1-.1-.42-.02-.62-.02l-.34-.23-.55.29-.46-.3-.33.22-.71.05-.3.25c-.31-.17-.44-.55-.89-.55l-.46.21-.57-.26-.43.3-.75.05-.22.54c-.43-.2.04-.65-.38-.82l-.36.25q-.27.03-.52 0-.35-.14-.67-.32l-.5.34c-.42-.11-.96.13-1.46-.13l.31-.32c-.26-.21-.56-.06-.8-.11l-.36-.27h-.66l-.36.25-.32-.26h-1l-.31-.26-.37.26-.32-.56c-.28.25-.23.69-.7.8l-.34-.23c-.41-.07-.82.14-1.12-.15l.28-.27-.47-.44-.33.56h-.7c-.25-.3-.72-.45-.82-.76.04-.47.75-.5.67-.99l-.29-.29c.19-.19.34-.38.7-.45.28-.06.48-.45.75-.49.43-.05.5-.2.59-.5.04-.15.25-.27.38-.4l.46.32.13-.44c.15-.1.26-.32.54-.35l.25.2c.26-.34.37-.82 1.04-.83.05 0 .14-.14.14-.22.03-.31.34-.43.64-.6h.93l.22-.5c.2-.07.46.04.53-.2l-.28-.28.61-.2-.3-.43 1.22-.05c.38-.41.9-.63 1.45-.8q.46-.1.69-.5l.15-.34h1.04l.25-.2c.38-.2.89.12 1.21-.18l.1-.37c.37-.17.55.02.77.2l.9-.84c.73.1 1.13-.24 1.6-.4l-.3-.28c.39-.26.34-.77.84-.94.25-.1.56.1.75-.09l.2-.46c.34-.06.64.08.83-.12l.11-.45h.67c.27-.03.37-.3.7-.29.17 0 .34-.2.54-.24.25-.06.55.04.75-.19q.12-.1.28-.1c.5-.1.65-.41.75-.73l1.89-.77.17-.44.56.34.51-.34c.27-.05.53.03.8-.1q.63-.28 1.17-.7c.13-.1.44.02.5-.21l.14-.36.38-.01.37.29c.59-.74 1.73-.95 2.3-1.67h.64c.23.04.25.37.54.17l.02-.29-.34-.3.5-.39h1.1c.2-.19.48-.42.7-.67.23-.25.65-.1.82-.39.19-.31.66-.27.93-.48.23-.18.62-.13.82-.4.14-.18.4-.24.67-.31.26-.08.47-.36.67-.52h.91l.15-.04c.27-.54.27-.54 1.45-1.06h.52a1 1 0 0 1 .22-.19q.27-.1.61-.18l-.38-.37.93-.14c.26-.17.4-.44.75-.5h.46c.43-.16.55-.64 1.1-.57.34-.46.92-.16 1.17-.24l.91-.64.18-.45.48-.08.22-.53.37.28.4-.3h.83l.94-.4c-.07-.71.87-.57 1.18-.94l.34.25.49-.4v-.55l.49-.4.4.3.22-.87h.73l.37-.27q.55.05 1.02-.24l.27.22 1.05-.82h.46c-.15-.43.24-.62.55-.79.3-.08.61.07.77-.13l.1-.38c.32-.17.72.1.92-.22l-.29-.28c.26-.22.56-.07.83-.12l.47-.4-.32-.31q.3-.05.56-.17.33-.21.61-.48h.99l.37-.29c.25-.05.55.1.78-.1l.13-.42c.23-.03.5-.05.7-.23.24-.24.52-.54.85-.6.6-.12.6-.57.94-.9l.64.3.14-.23.06-.14c.85-.48 1.83-.64 2.47-1.27h.66c.31-.32.93-.28 1.17-.69v-.28l.9-.36.3.25c.23-.3.67-.46.87-.92.08-.06-.26-.35.17-.44l.23.47.82-.31q.04-.02.1-.14v-.4l.48-.51.33.56.35-.22.44.28.41-.2.28-.11.36-.13-.42-.44c.64.03 1.13 0 1.56.02l.53.3.55-.26.58.36c-.3-.72.2-1.07.42-1.57l.67.3.34-.22.26.2c.49-.2.49-.2 1.14-.16l.2.48h.7l.73.57h.65c.24.28.25.7.7.8l.7.04.89.77.5.1.13.43.97.13-.43.38.95.15.56 1.02.55.09v.93l.62.2.13.66c0 .02.08.03.1.04l.3-.2.54.36v.58l.48.4h.34c.16.22.27.48.49.65q.3.28.46.67l.59.17-.37.34q.3.06.6.18c.23.13.4.33.62.46.12.07.42-.07.4.2l-.26.21c.32.24.54.57.9.7h.63q.06.24.2.45.32.33.7.59c.3.2.2.61.6.76l.21.07.26-.2q.24.3.46.64a.6.6 0 0 1 .05.4c-.06.3.4.39.36.71-.02.2.37.11.52.21q.33.2.6.49c.23.29.3.67.71.85.48.21.44.7.83.96v.72c.2.32.27.6.49.76.36.25-.03.65.3.84l.55.09v1.46l.66.54v.88q.31.18.58.43c.2.26.63.13.82.38q.13.16.28.27l.04.61.96.46-.32.3.69.27c-.54.18-.6.23-.52.4h.77c-.02.56.55.8.94 1.1.4.07.82-.15 1.14.16v.54l.32.28c.01.21-.03.41.05.57q.24.43.6.76c.44.4.93.77 1.37 1.14-.04.75.55 1.24.88 1.81.2.36.84.47.81.97l1.01.88.65.16v.85l.32.28.09.38.59.17c.07.27-.1.52.14.7l.49.08.1.66.95.79.01.27.24.22c.21.38-.06.71.22 1l.56.14v.47l.44.78 1.23 1v.37l.53.35.23.51h.53c-.3.43.44.53.35.93l1 .9c-.1.56.42.93.6 1.4-.04.11-.31.12-.17.3l.55.15.1.4.61.18v.5l.7.34v1.42q.15.09.25.22.09.18.13.38c.38.06.85.2.89.48.05.43.53.54.67.86l-.24.18.67 1.08-.4.36c.58.24.68.77 1.01 1.16.26.32.28.75.67 1-.2.45.4.72.36 1.13.4.2.33.53.35.79l.42.52q-.9.53-.15 1.15c.11.1.04.35.06.55-.17.19-.58.34-.25.66l.67.18-.47.68.8.43-.43.64v.44l.67.58v.72l-1.05 1.68.36.35-.3.28v.81c-.24.34-.68.42-1 .6v.47l.35.45-1.05 1.63v1.56l-.35.3v.45l-.47.75-.43.07c-.3.37.19.5.2.56v.95l-.29.23.33.3v.81c-.22.26-.67.36-.67.74l.36.5c-.08.3-.48.37-.34.68l.3.29-.31.29v1.4c-.77.33-.76 1.11-1.3 1.6-.06.06-.03.17-.05.27l.34.3v.55l-.3.26c-.1.52.06 1.02-.09 1.49-.25.07-.51 0-.64.29l.38.62-.35.46v.7l-.3.3-.07.6-.3.24.32.29c-.11.1-.29.19-.3.29-.06.27-.02.51-.26.77-.2.21-.1.6-.15.9 0 .04-.07.07-.07.07l-.52.1.6.92-.2.2c-.18.27.05.53-.22.71l-.49.1-.09.65-.6.5.3.3v.54l-.66.57.5.4h.32q.06.02.13.1c-.32.47-.7.92-.66 1.45l-.31.23v.56q-.37.41-.93.48c-.16.32-.22.72-.5.92-.42.31 0 .86-.57 1.06.13.22.63.35.2.67l-.52.11v1.07l-.4.51.33.45q-.18.18-.39.3-.27.11-.55.18c-.1.24.09.48-.13.68l-.56.15.37.43-.4.6.33.43-.67.2c.11.32-.07.63.12.93l.27.22c-.56.24-.67.74-.95 1.1l.3.41c-.12.28-.5.37-.36.67l.32.3v.57c-.57.22-.63.77-1.03 1.17v1l-.28.3.34.28c-.46.15-.3.63-.7.83v.93l-.49.28c-.41.7.4 1 .1 1.58l-1.1.78.6.15.38-.28c.5.33-.11.51-.2 1v.54l-.32.26c.12.27-.1.6.14.9.01.1.35.11.26.17-.43.26-.84-.02-1.05.32l.03.3.63.18-.33.35v1.35l-.34.27v2.72c0 .04.06.07.27.35l.88 1.47h.22l.62.36.05.7 1.19.57.25-.2.69.83c.2-.22.38-.4.92-.23l.38.46c.48.01.83-.05 1.09.34l.53-.62h.45l1.64-1.34.5-.08-.25-.42.6-.17.03-.36c.55-.15.67-.64.9-1q.3-.5.74-.86c-.08-.2-.43-.29-.3-.56l.42-.41-.4-.46.62-.25c.15-.38-.55-.52-.24-.88l.56-.17c.16-.3-.1-.44-.3-.6v-.96l.11-.23.22-.2v-.54l-.31-.29v-1.09l.3-.3-.28-.23v-.89l.27-.22-.61-.88c.28-.2.8-.16.92-.57l-.24-.2v-1.44l.63-.52v-.55l-.33-.3c.43-.19.3-.54.36-.83l.6-.49-.34-.5c.19-.25.5-.35.32-.79l-.62-.36.31-.33-.27-.3.3-.23-.35-.32q.22-.07.46-.1c.21-.02.45.04.61-.25l-.3-.44c.02-.32.56.05.53-.34l-.69-.2c.42-.2.58-.55.89-.65l.67.27.68-1.13.5-.1.07-.65.29-.24v-.83l-.68-.59.62-.18c.02-.4.41-.6.7-.86l.07-.98.57.23.1-.47-.68-.4v-.64l1.06-.86-.9-.52.65-.14.47-.7v-.82l-.28-.22c.1-.22.65-.34.2-.67l-.45.2c-.26-.4 0-.68.17-.97l-.23-.25V446l.29-.23-.33-.3v-.9l.65-.42v-.62l-.29-.23c.5-.2.2-.63.4-.92l.24-.2v-1.1l-.32-.3c.41-.13.29-.53.57-.77s-.05-.69.4-.9l-.29-.23.31-.3v-.53l.34-.3c.13-.27-.2-.37-.3-.56l.28-.28-.29-.23.28-.29c0-.2.1-.43-.06-.63l-.58-.17v-.3l.33-.29v-.54l-.34-.32.67-.2v-.86l.72-.58v-1.14l.65-.18-.5-.46.78-.35c.04-.3 0-.52.1-.64.34-.34.4-.85.94-1.03v-.31l.95-.78q.02-.04 0-.07l-.31-.34.53-.84c.34-.08.64.07.84-.18.06-.2-.12-.45.12-.64l.57-.15-.3-.3.43-.42.38.26q.11-.06.13-.1v-1.4l-.32-.28v-.82l.39-.35-.67-1.08.54-.17c.22-.32-.07-.45-.25-.6.04-.22-.11-.46.1-.66.28.03.45.4.81.16.17-.3.08-.6.06-.9l-.28-.29.63-.52v-.78c.13-.21.47-.32.34-.6l1.72-1.4v-.92l.41-.82.56-.16.02-.32.7-.28-.66-.2.31-.51-.44-.5.4-.45v-.51l-.31-.29.29-.28-.34-.33v-1.35l-.33-.26v-1.38l-.3-.25.34-.31-.6-.17c-.1-.43-.58-.74-.46-1.2-.23-.3-.62-.36-.94-.51-.05-1.17-.05-1.17-.23-1.24l-.33.23-.46-.4c-.14-.31.24-.4.33-.67v-1l.27-.22c-.06-.22-.52-.37-.2-.67l.3-.07q.15-.05.28-.13v-1.36q.7-.5 1-1.3c.3-.85.29-.85 1-1.46v-.55l-.32-.3v-.53l.3-.29-.28-.28v-.82c.25-.3.65-.36.97-.53l-.31-.29.4-.35-.34-.48.64-.98v-.74q.58-.07.97-.5v-.27c.67-.13 1.03-.62 1.53-.96l.32.55q.14-.14.26-.22.36.07.67.23c.4.25.74.54 1.11.81.32-.1.44.19.67.25.25-.14.37-.42.71-.47.12.36.3.65.76.79.4.11.73.36 1.2.28.12.1.3.18.33.3.11.36.79.05.84.52.03.28.3.54.46.8q.33.6.73 1.13c.19.23.08.44.14.67l.32.28-.39.35.67 1.08-.25.21.3.3v.54l-.65.56.34.32v1.9l.67.55v1.66l.32.26v.67l-.1.24-.23.2v1.37l-.34.3c.27.13.28.36.4.56s.37.33.58.5l-.35.35v1.1l-.27.2.36.41-.4.6c.23.33.52.62.25.98l-.29.44.4.36c-.2.14-.44.28-.25.73l.68.36-.72.24c.22.23.32.54.28.85l-.33.3v1.37l.32.3v2.15l-.37.44.3.43-.32.46.38.36-.3.28.3.28-.33.31v1.61l-.37.36c.05.3.45.47.41.84-.04.33.5.59.3 1l-.32.3v1.37l.33.3v2.18l.21.2.36.98-.57.47v1.08l-.42.44.35.4q-.16.21-.27.48c-.05.17.06.37-.16.5h-.34c-.08.43-.48.67-.82.96v.54c-.34.24-.56.57-.87.7l-.73.04c-.12.38-.03.77-.42 1 0 .55-.65.5-.97.73l-.1.4-.72-.28-.5.76.34.36-.8.04-1.27.96q0 .17-.03.3c-.32.14-.67.24-.94.47s-.8.25-1.04.6v.54q-.39.4-.92.5c-.38.12-.33.53-.56.73l-.47.08-.14.42c-.37.23-.88-.1-1.24.2l-.05.62-1.07.36a1 1 0 0 0-.26.15q-.25.19-.48.4h-.66c-.6.92-.87 1.05-2.12 1.4-.56.15-1.23.23-1.44.87-.1.27-.47.5-.76.7-.14.1-.5.11-.53.21a1 1 0 0 1-.26.47c-.13.12-.13.34-.25.46q-.26.25-.56.47v.83a3 3 0 0 0-.76.87c-.2.3-.58.5-.88.75l.24.2-.66.54.4.37-.3.28v.88l1.66 1.32.02.29c.3.2.81.18.93.57l-.33.35h1.71l.46.58h1l.48.28h.57l.36-.27c.3.01.62-.07.91.17.21.16.6.16.82.37.04.04.2-.01.31-.02.22-.28.24-.7.78-.81l.88.36q.29-.3.56-.54c.27-.24.48-.1.7-.28.26-.2.21-.49.44-.7s.27-.48.7-.57c.39-.08.36-.5.58-.72l.5-.09-.27-.4.63-.19v-.61l.91-.5 1.4-2.25-.34-.3.96-.14.6-.5c.13-.08.46.13.43-.19l-.24-.2c.24-.18.3-.44.42-.67l.56-.17v-1.12c.38-.4 1-.61 1.08-1.17.56-.61 1.42-.8 2.19-1.15l.28.7.6-.77c.33.27.14.52.2.72l.36.32v1.36c0 .03.08.06.13.1l.5-.35c-.12.44.13.67.44.84.3.16.15.52.47.67.35.16.4.5.6.77h.65l.73.56c.43-.17.56.48 1.02.24.31-.05-.1-.49.35-.47l.22.47h2.15q.12-.53.6-.8h.8c-.14-.48.39-.65.7-.96v-.54l.33-.3c.14-.27-.21-.37-.3-.57.25-.14.3-.33.32-.58s.27-.47.3-.72c0-.25.15-.49.38-.6-.1-.28.09-.6-.12-.9l-.24-.2v-1.1l.33-.29v-.53a4 4 0 0 0-.49-.39c-.14-.08-.44.08-.46-.2l.25-.2v-2.27l-.27-.21.48-.7-.88-.4.31-.26c.23-.31-.19-.73.24-1 .26-.06.56.1.8-.12l.06-.93.96-.13v-.59c.24-.33.64-.46 1-.6v-.53l-.27-.28.44-.42h.7q.55-.43 1.06-.89c.28-.26.62-.45.8-.82s.63-.62.98-.94v-.54l1.28-.48c.06-.2.07-.45.34-.56.51-.2.96-.55 1.6-.49.35-.29.76-.55 1.05-.88.23-.27.3-.63.5-.93q.18-.21.42-.36l.23.19 1.6-1.33q0 .13.02-.17c.34 0 .67-.15.9-.4.22-.2.5-.38.7-.59.25-.25.7-.18.95-.47.21-.26.57-.44.8-.62v-.6c.25-.44.87-.37 1.18-.68l.34.25.84-.7q.45-.4.96-.77c.3-.18.3-.5.55-.69l.38.24q.12-.76.6-1.38h.44l.5-.53c.49-.07.9.12 1.23-.14.13-.29-.17-.4-.32-.58 1.27-.3 1.88-.57 2-.87q0-.3.03-.53l.87-.33c.17.17.36.32.67.18l.22-.5.85.59.73-.34.68.32.3-.16-.32-.28v-.56l.5-.4q.18.28.3.52l.54.1c-.34.28-.27.7-.67.9l.12.1.6.15c-.49.25-.4.57-.34.9.48.29.7.74.97 1.2l-.05.47-.63.17.4.45c.12.26-.62.28-.28.52l.48.08c.14.33-.07.7.4.9l-.76.67 1.1.89c0 .2.05.48-.31.65l-.06.87-.3.25v.54l-.38.35 1.06.15c-.04.3.02.61-.04.9l-.28.28v3.02l.34.36v1.2l.36.58-.4.35.67.26-.31.3v2.19l.3.3-.28.22v2.82q.3.24.5.43.1.13.16.29l-.38.39v.79c-.09.07-.2.13-.24.2-.13.33-.02.72-.42.96.04.21-.12.46.17.61l.33-.25.5.4v1.93l-.35.3v.82l-.29.23v1.7l.27.28-.28.24.72.7-.38.44.27.23v.52l-.2-.07-.37.48.45.37-.33.04-.1.25-.24-.22c-.14.07-.28.24-.5.08l-.43-.1q.02.11.04.13a.36.36 0 0 1 .33.45c-.05.25.23.3.28.45l.38-.1.05.08-.59.33-.25-.24-.07.06c.17.36.17.36.44.3l.05.79.05-.02-.15.4q-.14-.1-.32-.15c-.03 0-.1.1-.15.15.09.05.16.13.25.13.24.02.3.09.28.3q.02.22.11.43h.09l-.04.31.39-.2.02.34-.1-.19-.24.18c.36.32-.2.27-.25.45l.76-.03-.24-.34.08-.08.2.19.36-.27-.04.49c.15-.38.43-.09.62-.1q-.21.15-.44.25c-.13.07-.32.13-.14.3l.16-.25.5.23h-.02c.23.08.5.09.6.2q.07.08.18.12l.07.18.3-.1.1.04c.01.12-.02.28.08.36v.19q.15.21.36.38l-.04.04.04.04.07-.03q.45.33.97.5v.03c-.25.17-.25.17-.18.64l.16-.58h.1l.28.47c.09-.08.23-.15.23-.22l-.05-.11q.13.07.24.16.09.07.14.18c-.34.34-.34.34-.04.7l.21-.1.27.01a.6.6 0 0 0 .5-.03l.5.4.46-.33.35.26h.05c-.18.43-.15.44.3.65-.31-.46.22-.28.48-.42l-.55-.23h.38l.35-.26h.47l-.16.4c.1.02.22 0 .27.04.16.15.25.09.34-.07q.09-.15.21-.26l.24.1-.16.06q-.02 0-.02.08l.1.27q.14-.08.25-.18l.08-.12.21.09v.28l.91.37.21-.5c.3-.07.6.08.9-.16l-.72-.27.46-.4.78-.03.46-.4-.1-.09q.22-.06.37-.2.27-.2.57-.35l.08.08c.07-.08.1-.2.18-.22.36-.09.21-.24.14-.4l-.25.27c-.07-.1-.1-.24-.2-.3a.3.3 0 0 0-.17-.02l.4-.11v-.12l.14-.05-.14-.1v-.03l1.03-.46h.9l-.11-.12.57-.23-.34-.27c.14-.4.66-.36.96-.59V451l.3-.27.12-.38c.22-.09.49.02.62-.44l-.72-.27.05-.62c.54-.24 1.13.05 1.6-.18l.1-.4.64-.18-.36-.32.67-.27c-.45-.24-.36-.56-.26-.92.2-.05.52 0 .68-.24.15-.23.31-.42.49-.66l.67.27.21-.49q.65 0 .84-.48l-.21-.17.67-.54-.4-.36c-.12-.67.55-1.1.75-1.68.1-.32.6-.32.91-.5v-.58l.51-.37.34.24h1.1c-.06-.48.52-.14.72-.36.18-.28-.05-.42-.25-.58.37-.2.88-.27.99-.77l-.34-.4c.2-.1.39-.16.59-.01l.18.44.88-.37-.32-.3v-1.08c.38-.25.34-.76.83-.96l.69.53.48-.4-.28-.25.8-1.27c.25.05.4-.07.58-.19q.27-.12.57-.17l.04-.64c.46-.23.96.1 1.29-.2l.1-.43.5.23.22-.52h.44l.62-.77 1.07.46c.15-.2.07-.48.36-.6.02-.37.67 0 .7-.38l-.26-.2c.16-.39.67-.36.98-.6v-.3c.25-.07.31-.36.64-.37l.6-.03.26-.6.71.33.27-.46c.36.06.42.4.77.43.29-.32-.12-.74.25-1.04l.52.32.52-.3.3.2.57-.28.46.32.55-.45q.29-.26.6-.49c.21-.14.3-.36.57-.39l.29.23c.48-.43 1.1-.76 1.34-1.43l.17.34.12.23c.47-.06 1.12-.28 1.22-.42l.04-.28q.3-.05.56-.19c.18-.12.34-.22.58-.16l.38.27.22-.5c.61-.17 1.3.1 1.96-.2l-.72-.27.5-.41.33.24.5-.28.8.37q.27-.27.6-.5.4-.2.84-.35l.27.2.97-.47c.38-.18.88.17 1.23-.2l-.92-.36c1.13-.06 2.01 0 2.92-.05l-.26-.45c.42-.33.56.12.83.2.26-.05.56.1.77-.14.13-.28-.17-.4-.32-.57l.98-.4c.33-.13.74-.2.96-.4.31-.3.78 0 1.05-.28l-.31-.3 1.63-1.33.1-.43h1.21q0 .2.08.38c.1.15.37.22.31.5l-.28.37.6.5c.06.29-.07.64.36.83v1.37l.33.3v.54l-.32.29v.73l.57.92-.3.48.38.35c-.2.14-.42.29-.3.6l.55.15c.01.27.36.46.3.74l-.5.08v2.31l.63.52v.55l-.32.29.3.28v.84l-.3.25v.84h-.12l-.18.46.2.2-.2-.04-.16.35.16.13-.29.07v.02c.15.02-.02.27.23.21l-.14.31-.24-.14.12.7-.2-.1-.34.27.33.15-.07.16c.19-.1.35-.3.5 0l-.52.17.14.34.59-.05-.2.5.16-.02v.47h-.6c-.03 0-.08.08-.07.11l.17.43.37-.08q-.08.14-.08.18c0 .04.02.15.05.16h.05c-.06.1-.03.24.06.31l.15.04-.04.05v.06c.01.17.2.28.47.27v.05c-.07.3.22.49.34.74l-.27.02.28.33c.05.07.16.17.14.23-.12.24.02.48 0 .71q-.05.72-.12 1.42c-.16 1.6-.66 3.16-1.1 4.73a1.7 1.7 0 0 1-1.27 1.23 6 6 0 0 0-1.1.45.5.5 0 0 0-.2.75c.14.16.37.22.75.04q.63-.3 1.23-.67c.47-.27.48-.27.93 0q.2.12.43.06a.5.5 0 0 0 .25-.33q-.03-.72-.14-1.44c-.06-.43-.1-.85.16-1.26a1 1 0 0 0 .13-.44c-.05-.45.1-.9.4-1.22q.19-.2-.05-.44a.6.6 0 0 1-.16-.42c.06-.42.19-.84.29-1.27l.12-.17q0 .2.03.4.04.14.17.2.15 0 .25-.1.12-.15.2-.32l.3-.66c.05.46.38.8.6 1.17h1.06c.19.96-.02 1.93-.02 2.9 0 .44-.17.88-.22 1.33q-.08.67.75.55c.35-.06.54-.22.48-.55q-.13-.59-.35-1.15c-.11-.33-.28-.65-.34-1a3 3 0 0 1 .23-1.72l.15-.36h.1q.16.03.28.12l.04.62.21.08q.1.03.17 0l.48-.22q-.06.2-.07.39c0 .24.2.43.43.42a.4.4 0 0 0 .47-.33q.07-.4-.02-.8l-.03-.17.44.21.43-.32c.37-.05.77.1 1.12-.1l.1-.69.86-.07c.16-.31.7-.41.77-.86l-.35-.4.17-.2c.05.2.16.03.25.01l-.07-.17c.36.13.36.13.5-.05-.06-.03-.15-.06-.16-.1l-.02-.11.21-.34a.7.7 0 0 0 .34-.6l.09-.03h.04l.31.42.29-.62.22-.55c.05-.17.03-.36.32-.4q-.08-.5.48-.7l-.67-.2.28-.05v-.06l-.5-.11.24-.27.34.22.04-.04-.3-.66-.07.06-.23-.13q-.04-.1-.02-.2l-.32-.16c-.01 0 .02-.1.07-.14.21-.17.23-.4.06-.56l.41-.34h-.23l-.02-.05.28-.1-.03.28.5-.12v-.09q-.42.23-.41-.15c0-.02-.07-.06-.1-.07l-.46-.1.14-.5-.28.2.12.08-.27.15.19-.47.16-.37-.27.01a.3.3 0 0 0-.02-.33l-.15-.06-.03-.1-.05.08c-.22-.06-.45-.12-.57-.31l-.44-.7.31-.28-.46-.13-.15.11.1-.3-.07-.02-.08.2-.33.05.01.08.24.1-.1.07c-.26-.18-.23-.36 0-.55.28-.23.16-.49.09-.74-.2-.21-.55-.33-.61-.67l.37-.52-.73-1.08v-1.06l-.53-.09q-.06-.24-.2-.44c-.14-.15-.3-.26-.23-.49l.32-.28c-.05-.3.12-.63-.11-.92l-.6-.16c.4-.24.9-.24 1.05-.65l-.07-.25-.56-.17c-.07-.32.06-.67-.39-.88.04-.39-.03-.8.03-1.14l.33-.25-.67-.26c-.14-.32.24-.4.3-.55v-.77c-.25-.39-.55-.67-.62-1-.09-.4-.69-.46-.7-.87.65-.98.65-.98.63-1.47l-.34-.47.36-.45-.67-.19.36-.32v-2.18l.3-.29-.28-.29.25-.21-.67-1.1.38-.33v-.8l-.7-.26.4-.33v-1.41l.64-.2v-.58l-.32-.28.33-.3v-1.06l.3-.28-.28-.3.33-.27v-1.1c.34-.23.54-.62 1-.26v.28l.96.41h.85l.36.27h.9l1.57 1.23.15.42h.7l.37.29c.25.05.55-.1.78.1l.2.46h1.37q.54.46 1.08.88c.54.42 1 .34 1.24.8.3-.39.68-.33 1.07-.28.3.55.3.55 1.44 1.07h.67l1.32 1.1c.43.34.61-.24.78-.03l.63.13-.35.38c.28.1.47.13.65-.04l.02-.13c.07-.25.07-.25.33-.17v.55l.5.4h.63l.38.28.34-.25.8.65.14.53.38-.64.72.55h.64c.45.17.43.6.73.82l.63.02.64.53.3-.23 1.54.64-.3.3.6.5 1.02.47.53-.63.52.18v.3c.3.21.82.19.94.59l-.24.2c.32.52 1 .54 1.72.86l1.12.98h.7l.2.47.76.26.54-.22 1.28 1.05.01.26.97.54c.2.36.35.87.88 1.2l.33-.24.47.35.1.4c.43.16.91-.11 1.25.2-.2.17-.44.31-.27.58l1.96.77v.56c.2.12.3.35.59.37l.23-.55.34.6c1.21 0 1.21 0 1.48.22l-.97.12c.23.4.62.12.89.25l.8.4v.7l.44.76 1.23 1q-.02.07 0 .13l.62 1.03-.71.21c.68.26 1.33.41 1.76.84l-.33.3.3.12.27.07.57 1.04h.7l.83.67-.32.3.86.36.34-.25c.32.52-.03 1.08.22 1.62l.69.06.92.67v.7l.74.41-.38.61.62.18v.3l-.33.3.67.28-.29.84.24.26v1.68l-.27.22c-.02.31-.1.62.06.92l.25.2v.54l.32.3-.3.28.28.23v1.07l-.4.59.78.48-.7 1.07c.33.44.5.92 1.01 1.2-.17.29-.62.39-.67.78l.31.4c-.26.13-.28.34-.31.57s-.28.48-.3.72q-.02.38-.35.58l.33.3v.54l-.34.3v.53l-.34.32c.02.18-.01.38.07.54s.33.24.28.45c-.05.25.1.42.3.6.11.11-.02.36.26.41l.5.13c-.46.14-.82.3-1.07.63v.78l-.27.26.34.48-.4.38v1.6c0 .04.06.08.09.11l.23.2c-.38.2-.3.64-.65.88-.04.03.01.16.02.24l.34.32v1.07l.29.23v.58c-.06.14-.44.23-.3.53l.31.3c.07.2-.1.44.12.63l.46.14c.27.35-.14.43-.2.63q.3.21.58.5.2.3.31.64l-.26.22v.6l.96.52.17.4h.4c.29.44.9.53 1.32.75l1.08-.45.23.54.4-.3H361l.44-.58.25.2.62-.3c.06-.27-.1-.52.17-.69l.38.29.42-.09.09-.32.96-.53v-.6l1.32-1.09-.3-.28.3-.27-.36-.4.4-.6-.32-.42v-1.38l.64-.53-.68-.26v-1.38l-.39-.35.34-.53-.95-.78v-.83l.32-.29v-2.77c-.55-.17-.2-.64-.46-.94-.23-.27-.29-.63-.53-1.21v-1.09q.02-.06.07-.11l.25-.2-.33-.3v-.74l-.75-.33c.67-.25.16-.88.72-1.09l.08-.89.28-.23-.33-.29v-1.1l.32-.29-.67-.54v-2.18l-.3-.34.3-.24v-3.58l-.37-.33c.12-.21.38-.46.35-.67-.06-.37.39-.54.37-.86l-.4-.54.4-.38c-.06-.18.1-.4-.07-.6l-.26-.21.34-.3v-.53l.32-.3-.66-.26.64-.53c0-.21.1-.44-.06-.64l-.23-.2.38-.41-.36-.44.27-.28-.27-.22v-1.4l.27-.32c.11-.38-.52-.45-.3-.8-.4-.2-.38-.52-.32-.83l.11-.1.2-.2c0-.8 0-.8-.15-.91-.17-.06-.45.08-.46-.19l.25-.27-.3-.24v-.54l-.33-.3.29-.26-.34-.42.33-.45-.62-.5v-1.37l-.34-.3v-.82l-.33-.3c-.13-.3.25-.38.31-.53v-1.96l-.28-.23v-1.71l.3-.25v-.93l-.08-.25-.24-.2v-.54l.31-.29-.3-.28v-1.66c.3-.33.3-.33.27-.83l-.26-.27v-2.47l.37-.4-.4-.46v-.5l-.32-.3.3-.28v-2.2l-.28-.28.24-.26c-.05-.17-.33-.18-.19-.36l.46-.1q.07-.03.12-.1v-1.93l-.32-.29v-.72l.48-.78.35.26.38-.29c.24.1.55-.08.75.13l.1.39.99.15-.43.38.95.13.27.22h.65l.38.29h2q.06.02.12.1l.13.4.77.06.47.38c.06.14-.12.38.24.37l.26-.21.71.55h.6l.52.3.73-.34.49.26.42-.25c.37 0 .51.4.9.3q.27.26.6.47.47.22.96.38h.82l.4.33c.15.3-.06.55.3.77h1.05l.1.74.5.08.45.38v.56c-.1.16-.44.26-.31.55l.33.3v.8l.31.3-.28.23V411l.33.35v1.2l.35.57-.46.49.38.4-.34.41c.14.2.24.33.33.48l-.65.2.74.3v1.41l.3.24-.32.29.26.25-.56.89.26.22c.05.95-.02 1.9.04 2.8l.31.24-.3.29.28.28-.28.24v.6l.26.22v2.82l-.29.24v2.33q.03.15.1.26l.23.16v1.65l.32.3-.28.23v2l.3.24v.98l.37.57c-.15.26-.5.36-.37.64l.32.3-.31.28c-.14.3.25.39.35.67v.7l.28.3-.3.24v.56l.3.26-.2-.05-.4-.16q-.11 0-.24.05l.12.23-.85-.03v.06l.86.14.04.45q.08-.15.2-.26.15-.1.32-.11.05.11.17.13v.26q-.1-.09-.17-.09c-.05 0-.12.07-.19.11.06.05.1.13.17.13q.09 0 .2-.07v.05l.33.3v.17h-.15c0 .05-.04.13-.01.16l.16.15v.05l-.26.24-.68.2c.23-.18.03-.24-.12-.33l-.06.2H381c.11.13.31.25.29.35s-.24.19-.37.28q-.03 0-.06-.04l.05.18-.06.03-.15-.15-.18.02.01-.2.12-.24-.07-.03-.31.17q-.1-.15-.14-.32c-.02-.17-.11-.18-.33-.17q.14.28.32.52c.17.17.2.28.01.43l-.3.33.09.07.29-.2.31.34-.46.17.02.07.4-.05c-.14.52-.57.52-1.1.38l.19.25c.19-.08.4-.02.52.15l.24-.07.04.07q-.19.05-.36.12t-.32.17l-.01-.15-.25.22c.35.22.5-.01.67-.18v.65q.13-.04.15-.12l.1-.52c0-.03.07-.05.11-.07q.02 0 .05.03l-.07.06c.06.09.15.16.16.23q.03.31.39.15c-.26-.07-.27-.12-.1-.3l.47.05q.2 0 .38.08c.16.11.37.09.5-.05.17-.15.19-.14.41-.04q.06 0 .11-.03a.1.1 0 0 0 .01-.09l-.12-.07.02-.12.11.1v.65c-.08-.01-.07.05-.07.21l-.08.18q.08 0 .15.03v.19l.2.13.05.06-.16.03-.2.11c.06.04.13.12.2.11q.17-.04.26-.21l.67.44v.48c.02.08.11.14.17.22h.33l1.31 1.07.35.03.7.55h.4l.08.3c.03.13.12.28.07.38-.06.08-.04.2.04.26l.03.02c.1.09.17.5.06.57-.2.13-.11.25-.05.4l.29-.13q.39 1.72.73 3.41c.04.17.15.39-.12.53-.03.01.03.15.06.22.04.08.13.16.14.24q.05.37.04.75a.3.3 0 0 1-.16.22q-.26.15 0 .27c.22.1.28.8.07.91-.03.02-.1 0-.12.03l-.11.12.33-.02q-.16.09-.28.21c-.02.03.04.14.09.16.22.06.2.19.2.33.03.5-.08 1-.1 1.5q-.08 1.77-.28 3.56-.05.66-.24 1.3c-.2.66-.49 1.31-.73 1.96a1 1 0 0 0 .07.87c.22.4.7.5 1.13.23q.46-.28.64-.8.45-1.09.41-2.3c0-1.88-.05-3.76-.04-5.64q.01-1.56.13-3.11c0-.2.04-.38.04-.58q.01-1.32.1-2.65.04-.15.18-.22c.14-.1.18-.23.03-.28-.23-.06-.22-.2-.23-.35l-.1-2.38v-.03h.3c-.1.05-.08.1.03.28a.4.4 0 0 0 .32-.28h.08l.42-.54q.07.04.15.06c.04 0 .13-.04.17-.09h.8l.48-.42v-.46l.33-.23q.12-.08.24-.19l-.08-.04-.36.03.23-.22.09.03.23.03.01-.06-.14-.09.34-.07.25-.46.02.02c.02.02.17-.04.17-.05l-.07-.19.16-.3q.02-.03.08-.02h.03l.38.25c-.15.06-.05.16.03.31.11-.16.45-.05.38-.3a1 1 0 0 0-.36-.03l-.04.01.07-.46h-.02q.06-.05.06-.09c0-.02-.08-.1-.1-.1l-.36.07-.17-.05a.23.23 0 0 1-.04-.32l.4-.17-.18-.12.01-.07-.25-.2.07-.07q.08.06.18.1c.03 0 .13-.07.12-.1l-.1-.19.04-.04v-.36l.4.18.08-.06-.2-.36a.3.3 0 0 0-.23-.05l-.05.02v-.96l-.26-.39q.28-.13.31-.43.07-.39-.38-.34h-.03v-.41l.26-.4a.23.23 0 0 0-.2-.33.7.7 0 0 0-.39.16l-.16-.02-.1-.08v-.01l.48-.2-.2-.14q.26 0 .5-.03.22-.05.39-.2c.08-.08.07-.22.1-.33l-.3.03q-.23.09-.49.13-.38 0-.84-.05.02-.08.07-.13l.28-.24-.14-.06-.1-.09c.17-.39.17-.39.09-.43a.5.5 0 0 1-.3.3c-.3-.32-.44-.76-.83-1.04l-.08-.13-.08-.05a2 2 0 0 0-.21-.4c-.13-.15-.07-.42-.09-.58l-.3-.25v-1.37l-.33-.29v-.82l.31-.3-.3-.11-.35-.1v-1.45l-.35-.1-.34-.13v-1.94l-.3-.26v-.56l.32-.28v-.69l-.65-.36v-1.44l.28-.24v-.84l-.27-.3.3-.24-.33-.3v-.53l-.32-.29.3-.28v-1.39l-.26-.21c.26-.4.26-.4.2-.94l-.25-.2v-.53c-.15-.19-.46-.3-.33-.58l.32-.29v-1.1l-.32-.3v-.72c-.02-.23-.4-.3-.34-.57q.04-.3.01-.62l-.34-.27v-1.2l.09-.25.23-.2-.31-.29v-.28l.65-.26-.31-.27.33-.47-.36-.36c.35-.15.75-.26.97-.58l-.65-.26.48-.4.36.26 1.34-1.1.31.56.37-.27c.27.31.25.76.91.84.43.05.82.35 1.18.52h.56l.37.28h.65c.36.18.49.47.62.83q.39.01.79-.01c.33-.05.46.32.7.27.55-.14.84.41 1.37.3.11-.03.26.08.44.15l-.37.62c.62.1 1.23.01 1.82.05l.92.76 1.17.42.2.47h.91l.82.83h.4c.56.1 1 .47 1.57.55q.14.05.19.2c.08.45.57.62.89.9.63-.1 1.08.38 1.7.34.06 0 .15.12.29.23h1.2l.6.26.33.12-.31.34.63.21c.2.06.38.14.76.29l1.5 1.24c.33-.1.43.23.76.3h.55c.33.27.6.57 1.06.6l.21.48h.35q.38.31.75.56.2.07.41.08l.1.43.88.08.1.4.44.36.67-.3c.2.37.35.7.76.88.62-.1 1.07.4 1.68.32.2.17.38.44.6.46.38.05.55.26.8.41q.34.18.7.3l.1.38.19-.15.51.76h.68c.42.17.53.52.72.83h.97l1.22.97v.29l.61.25.18.46h1.45c.32.33-.16.48-.15.72l.48.36h.91l.56.39v.55l.81.69c.2.05.48-.09.46.2l-.27.23.67.26v.29c.33.22.55.56 1.04.74l.5-.34.21.5c.82.29 1.7.48 2 1.33.1.32.58.35.9.5l.09.63.6.17c.09.25-.1.49.12.68l.94.15-.36.34.98.8v.8l.34.32c.01.38.01.38.23.64l.24-.2c.25.15.56.26.54.58l-.3.4.61.19-.37.53.4.36v.65l.74.43-.35.6.25.21c.01.31.11.63-.06.92l-.26.21.69.27v.8l.05.05-.08.12c-.05.14.06.33.26.47l-.08.1-.31-.2h-.12q.1.23.23.43l.13.21c-.18.03-.37.05-.5-.16 0-.02-.08 0-.12 0l-.05.06c.12.08.29.25.37.23.24-.07.36.05.5.13l.12.18-.14.17-.57-.37-.1.44.41-.13c-.09.16-.13.31-.18.31-.5.01-.28.24-.2.45l-.32-.12c-.06.37.38.18.52.4l-.89.13.1.28.36.21c.05.03.13.09.17.07.4-.1.46.17.61.34-.03.25-.35.47-.14.74l.25-.04c-.2.44-.5.18-.77.11q.15.2.34.34c.24.2-.03.25-.15.44l-.54-.4a.3.3 0 0 0-.25.02c-.47.5.4.37.46.65 0 .03.14.07.2.06l.47-.16.35-.5.15.73c.18.02.43 0 .59.08.25.14.08.32-.1.47l.72.9.62.06c0 .22.15.41.36.46q.25 0 .48.1c.4.2.75.5 1.18.63q.5.15.86.56.41.42.59 1 .2.94.16 1.89c-.05 1.84-.16 3.68-.23 5.51q-.1 2.21-.1 4.43.06.61.41 1.1c.23.37.68.48 1.19.39.46-.08.77-.31.84-.69q.08-.5.02-1.03c-.13-1.1-.38-2.21-.4-3.32-.07-2.26-.02-4.51 0-6.77q.01-.54.07-1.1l.94-.36c.06-.02.19.07.27.1.08.14-.06.36.3.41l.1-.42.52-.4h.73q.02.08.1.12l.94.25-.27.22q0 .08.05.15.07.1.16.17l.15-.17.2-.18h.02v-.01h-.02l.34-.26q.47.29.3.71a.2.2 0 0 0 0 .15c.23.52.07 1.05 0 1.58-.08.79-.2 1.57-.23 2.36 0 .45.2.88.55 1.16.24.24.6.33.94.24a.8.8 0 0 0 .65-.6q.1-.35.02-.7a5 5 0 0 1-.1-2.1l.4-1.99c.07-.4.3-.77.64-1l.43.06-.04-.33.08-.04c.41-.08.77-.21.9-.59 0-.03.08-.05.13-.07l.57-.28-.05-.08.2.08c.03-.15.01-.3.1-.4q.18-.15.41-.22l-.49-.08.36-.06.2-.3c.02-.06.07-.17.05-.18-.21-.15 0-.21.08-.3l.37-.49h.02l.26.11-.08-.22c-.03-.08-.03-.14-.07-.29l.26.19.06-.05-.47-.4-.06.22-.1-.05.26-1.14.2.07c.12-.55-.36-.48-.72-.48l.3-.27-.25-.08c.17-.31.17-.65-.06-.77q-.33-.16-.64-.28l.23-.27c-.22-.06-.46-.06-.61-.16-.24-.15-.52-.35-.6-.57s-.22-.01-.3-.14q-.15-.17-.32-.3v-.3l.37-.46-.35-.45v-1.07l.27-.3-.3-.24.33-.29v-.75l-.67-.96c0-.22.1-.52-.03-.67-.27-.31-.29-.65-.38-.98-.02-.08-.15-.13-.26-.22v-3.53c-.02-.04-.06-.07-.15-.18l-.85-.42v-.3l.62-.18-.58-.94.69-.2-.44-.8.39-.35v-1.36c0-.04.07-.07.13-.12l.35.25c.38-.26.11-.45-.14-.66l.3-.3v-.54l-.33-.29.76-.29q-.25-.27-.4-.57c-.1-.2.09-.46-.14-.61l-.52-.09v-.95c.47-.16 1-.23.98-.77l-.32-.28.38-.41-.36-.46.6-.49v-.9l-.63-.5c-.13-.3.2-.4.33-.6v-2.19c.73-.28.73-.28 1.25-1.16l-.3-.25.95-.14.42-.36-.3-.3q.33-.11.6-.22l.73-.3q-.39-.35-.81-.66c-.14-.1-.43.03-.5-.2l.46-.4h.34c.22-.18.28-.36-.02-.52l-.4.28-.08-.43q0-.2.06-.4l.93.4c.06.24-.1.49.15.66l1.04-.5.45.25 1.1-.9.46.33h1l.34-.26.34.24h.68l.31-.26q.41.3.78.65c.21.24.64.1.82.39.17.27.65.27.92.49v.27c.22.13.33.38.74.42l.47-.28h.76l.5.58.32-.26c.31-.04.64-.17.9.1v.27q.01.05.18.15h2.07q.25.18.56.27.23.1.44.27h.67l.68.83h.81l.42.57h1.02l.63.79c.45.04.84-.1 1.2.1l.14.4c.35.13.66-.05.87.16l.1.36.83.31.26-.2.96.89.14-.14.64.3.2-.4 1.25 1.02.04.43c2.76.9 2.76.9 3.26 1.38l-.24.2c.07.24.34.13.5.2.25.14.37.4.7.46l.27-.22.3.52.5.08.09.7c.39.08.87.18.92.48.07.5.6.63.87.97.2 0 .5-.07.64.02.55.32 1.2.46 1.76.78.22-.22.46-.4.78-.1l-.3.28c.5.52.7-.4 1.39-.01l.4.43h1.38c.37.2.45.52.64.8h.72c.26.52 1.06.52 1.47.97v.53c.32.25.56.56.88.7l.7.04.2.44 1.18.46.35.67-.68.2.8.3q-.21.38-.41.7l.16.22 1.06-.5.59.49.57.14v1.16c0 .03.08.06.05.04.22.13.5-.02.55.25l-.28.23c.37.35.74.7 1.31.84l-.3.28v.54c.2.33.6.38.98.52l-.64.6c-.07.34.3.4.3.55-.03.27.2.4.36.58v1.6l.3.3v.53l-.35.37v1.87l-.27.23c0 .22-.1.44.06.64l.23.2-.37.4.42.61-.4.47v.73l-.27.3.29.24-.31.3.31.27v.78l-.37.45.34.46-.57.18c-.19.3.06.44.27.6l-.65.56.38.36-.36.53v1.07l.33.27v1.11l.3.25v.55c-.15.2-.6.34-.2.67l.55.14v.54l.4.48-.34.36c.29.39.41.88.95 1.12v.84l.39.35-.36.54c.32.1.26.34.31.57q.14.36.36.7l-.36.33.3.28-.32.3.67.21v.86l.65.53.1.37.6.17v.31l.48.38c.26-.06.41-.5.8-.16l.2.47h.7l.34.26h.61l.56-.3.64.34c.5-.32 1.34-.3 1.44-1.04 0-.04.19-.05.28-.1q.49-.18.98-.4l-.37-.33.95-.14c.04 0 .05-.07.08-.1l-.61-.25.45-.43h.4q.06-.24.21-.47c.14-.14.3-.26.23-.48l-.64-.57c.2-.2.51-.32.6-.59l-.25-.2c.09-.19.44-.29.3-.56l-.3-.28.39-.45-.8-.72v-1.88q-.34-.44-.61-.82c-.01-.02.06-.07.1-.1l.52-.14-.45-.72c-.17-.05-.44.08-.47-.2l.33-.26-.8-.44.42-.37c.13-.36-.49-.49-.36-.84-.42-.21-.32-.53-.25-.82l.2-.22-.3-.52.36-.34-.31-.34c0-.37.54-.47.27-.83l-.58-.18v-.6l.32-.27v-1.93l.3-.25-.3-.29c.22-.32.77.07.98-.28v-.54l-.26-.26.45-.71h.8l.46-.53h1l.64.3.43-.3c.5-.04 1-.01 1.51-.02q.37 1.12.67 2.23c.03.1.15.27-.12.37-.03.01.02.11.06.17s.13.11.14.17q.04.26.03.53-.01.1-.15.16-.26.1 0 .2c.22.07.27.56.06.64l-.12.02-.1.09.33-.02-.28.15c-.03.02.04.1.08.12.22.04.2.13.21.24.02.35-.08.7-.1 1.06-.04.85-.17 1.7-.28 2.55q-.06.48-.24.93c-.21.47-.5.93-.73 1.4-.11.2-.09.44.06.61.22.28.7.36 1.13.17q.42-.17.64-.57.45-.77.41-1.64l-.04-4.03q.02-1.12.13-2.23l.05-.4q.01-.96.1-1.9c0-.06.09-.13.17-.17.15-.06.19-.16.04-.2-.24-.04-.23-.14-.23-.24l-.06-.97.38-.02.06-.12h.04c.1 0 .24-.1.24-.15s-.09-.09-.17-.12a.5.5 0 0 1 .33-.3c.69-.2 1.1-.67 1.6-1.05l.01.01q.08.01.16-.02l.4-.19.23-.13-.08-.04-.65.05-.03.06v-.13l.28-.18.36.09.23.03.01-.05-.23-.1.09-.03c.02-.08.1-.17.06-.24a.4.4 0 0 0-.15-.14v-.28h.1q.07-.01.15-.06.16-.05.33-.06c.32.05.64.22.9-.06h.02c.03-.02.08-.05.07-.07a.2.2 0 0 0-.11-.07l-.44.06.01.05-.4-.05v-.36l.1-.16c.06-.16 0-.18-.28-.14a1 1 0 0 1-.44-.03v-.06h.86l.03.02.22.08c.03 0 .13-.05.13-.06a.4.4 0 0 0-.11-.15l-.12-.11q-.02-.15-.26-.2l-.08-.06h.08q.08-.1.13-.23-.01-.03-.13-.11l-.15.12-.03-.04-.45.06c.12-.23-.08-.32-.4-.37h-.04q0-.1.02-.17c.27.17.75.33.85.31l-.29-.22.28-.07-.42-.42c.47.23 1.04.1 1.1-.24.04-.18-.06-.27-.38-.24l-.45.08-.2-.2c.57.02.7-.25.88-.46.09-.1-.06-.23-.2-.23-.28.01-.57.2-.57.38l-.02.1q-.08 0-.1-.03v-.11q0-.14.05-.3l.47-.14-.2-.1q.26 0 .5-.02.2-.03.4-.15c.07-.06.06-.15.1-.23l-.3.02q-.24.06-.5.1c-.35 0-.71-.04-1.17-.06q.2-.08.34-.11.42-.07.1-.24c.18-.28.18-.28.09-.31-.09.15-.23.25-.54.23-.14 0-.28.03-.17.17q-.16-.08-.16-.14-.03-.3-.52-.27c-.26.02-.46-.04-.5-.12q.2-.17.35-.27l.22-.06.2-.03c-.03-.05-.03-.1-.1-.14a1 1 0 0 0-.67-.05q-.1.02-.11.08.02.03.11.08l.19.08-.22.08c-.2.04-.31.18-.2.29l.12.12-.07-.02q-.22-.19-.42-.39a.1.1 0 0 0-.01-.13l-.01-.01-.11.02-.07-.06.2-.06-.01-.05-.36-.02q-.14-.09-.3-.15c-.48-.15-.75-.49-1.14-.66-.2 0-.41.06-.53 0q-.74-.39-1.53-.64c-.42-.5-1.18-.55-1.74-.88v-.27c-.23-.4-.83-.38-1.17-.68-.29-.25-.52-.6-1.04-.59a2.6 2.6 0 0 0-1.23-.68l.38-.57-.23-.2c-.32-.65.4-1.15.33-1.75l.62-.18v-.3l-.33-.3v-1.09l.36-.32c-.1-.2.1-.46-.16-.62l-.68.31-.47-.8.27-.23v-.7l.84-1.37c.21.01.44.04.53-.28l-.35-.5c-.12-.18-.19-.35-.3-.55.32-.08.23-.3.32-.45.1-.19.42-.3.32-.5l-.4-.48.44-.53c-.12-.16-.32-.33-.36-.52-.06-.27.02-.55-.34-.72.35-.22.28-.64.63-.86l-.3-.28.3-.23v-1.04l-.37-.55.38-.35-.32-.29v-.53l.32-.3v-.53l-.32-.32.61-.2.17-.41c.46.18.86.4 1.3.5.27.05.5.16.73.22q.45.12.8.42l.8.76c.6-.05.85.5 1.36.26l1.2.55c.35.04.7-.07 1 .1l-.21.37c.39.3.55-.1.84-.16l.22.48c.93.11 1.4.33 2.42 1.12l.3-.2.58.28.43-.3c.28.18.22.57.58.7q.29.09.56.21.3.21.58.46h.67l.63.52h.7c.26.25.63.5.8.8.21.4.6.62.9.86l.68.03q.14.29.23.52h.8q.32.31.73.67t.91.52c.34.09.54.46.85.64.32.2.73.2.93.5l.06.93.18-.1.23.45.45-.28.23.53h.67c.39.2.56.5.72.82l.4-.28.4.12.1.4.6.16v.31c.78.3.78.3 1.18.95.37.05.77-.1 1.17.13l-.86.35c.56.02.87.17 1.1.4.27.3.75.3 1.06.58.26.22.28.55.57.73.47-.31.56-.32.81-.12v.47l.48.76 1.08.05.37.34c.15.32-.05.58.26.73l.37-.27.23.5.57.17v.33c.18.06.45.07.56.17.2.2.48.17.67.26l1.1.9v.26c.31.42.87.5 1.32.72h.85l.36.27h.33l.84.7v.27l.64.25.13.42h.71l.93.86h.67l.95.7c-.09.34.3.45.5.65.16.17.48.34.48.52 0 .44.51.23.68.44.1.11.32.19.34.3q0 .29.25.47.2.1.35.29.12.22.2.46c.3.07.6-.08.9.15v1.1l.64.54.05.66.83.08.35.22.29-.24.35.26c.25.06.54-.09.78.1l.18.42.5.1.1.72.8.07.5.38c-.3.26-.28.26-.32.58l1.31 1.08v.25c.24.34.65.44 1 .61 0 .05.03.1 0 .14q-.12.21-.28.42c.32.39 1.01.36 1.28.76.06.16-.1.39.22.4l.36-.22.22.52.67-.3.58.47c-.1.27.1.6-.1.89l-.2.17.43.7.35-.24c.25.08.63-.2.81.16l-.34.27.55.4h.69l1.92 1.58.04-.05.87.5v.85c.2.22.52.34.6.6l-.23.2c.33.46.57-.04.78-.06l2.55 2.1v.48l.48.4h.67c.5.2.49.67.83.96.37.32.82.57 1.05 1.02.19.35.63.62.98.95v.52l.83.67.29-.2 1.58 1.28v.79c.27.06.32.38.75.35l.58-.33c-.22.77.56.77 1 1.05l.02.27.92.76.2.48h1.03l.36.23c.43-.27.43-.27.79-.1l-.28.28c.25.22.55.07.7.1q.53.24.71.78c.14.32.65.27.91.5v.3q.3.05.57.17a5 5 0 0 1 .6.47l.36-.27c1.24.4 1.24.4 1.62 1.07h1.1l.22-.48.52-.1v-1.32c-.16-.42-.57-.49-.63-.76-.11-.49.52-.22.6-.37m-78.29-107.08q-.01-.03 0 0m-6.83-.46c.04.07.13.18.11.2-.15.1-.19.32-.31.45l-.3.14zm-2.9.35.2-.02v.33l-.27-.24zm-334.77-36.6-.23.3.38.16h-.47l-.09.18-.3-.23c.07-.25.27-.45.71-.4M27.31 381.59c-.01.01-.06 0 0 0m152.35-8.38v1.38l-.33.27v.87l.29.24-.3.3v.8l-.68.58.64.52.04.6-.98.61c-.43-.11-.87.43-1.51.32q-.22-.32-.48-.62-.34-.3-.7-.59l-.1-.37-.5-.1-.24-.52h-1.38l-.5-.44v-.58l-.5-.11-.48-.75v-.68l-.36-.35.4-.12.28-.14-.68-.27v-.29l-.64-.52.29-.3.04-.9 1.03-.13-.37-.35c.37-.3.68-.69 1.34-.77l-.3-.32.3-.32c-.65-.23-.6-.86-1.11-1.2l.43-.46v-.82c.45-.15.89-.23 1.07-.67l-.43-.46.72-.46c-.09-.5-.76-.93 0-1.41v-1.15l.65-.19v-.57c.09-.06.17-.15.25-.16h1.36l.09-.4-.67-.55v-1.28l-.46-.64 1.1-.69h.9c.24.32.08.64.1.89l-.65.95v.67l.62.93-.29.27c.5.27 1.07.02 1.57.17.25.19-.18.16-.2.33.08.08.2.16.23.26.06.16.03.35.09.52q.1.19.26.34a1 1 0 0 0-.27.83l.33.29-.65.57c.44.22.33.54.26.9l-.48.07c-.26.2.12.24.2.41v.78l.34.3c.06.21-.11.45.11.65.28-.04.45-.42.82-.17.12.31.19.61-.23.86v.8l-.34.34c0 .1-.07.25-.01.36q.44.8.93 1.62zm107.38 10.65.46-.32c.44.17.85.36 1.34.35l.24.55.4-.7c.09.34.05.65.22.83s.2.4.32.58l.52.11.1.34-.35.31.63.52-.27.29.29.29v1.1l-.32.28v1.38l.22.16q.07.12.1.26v1.51l-.25.21c-.15.25-.06.53-.08.8v.66l-1 .4c-.4 0-.45-.39-1.1-.48-.16 0-.56-.23-1.01-.34-.2-.04-.31.02-.73.26l-.36-.26h-1.31l-.7-.54-.4.29-.43-.13v-.31l-.49-.39-.78-.06-.13-.46c-.56-.14-1.17 0-1.82-.1l-.3-.22-.36.26c-.5.06-.63-.33-1.02-.55h-1.07l-.1-.43c-.46-.18-.9-.46-1.46-.4-.2-.3-.72-.2-.93-.47-.22-.28-.66-.29-.93-.49v-.28c.73-.3.81-.36 1.17-.96h1l.36.27h.66c.5-.2.46-.7.84-.96l-.35-.31.14-.42 1.05.87c.23-.2.42-.47.63-.5.36-.03.53-.29.84-.33h.52l.7-.55.37-.01.2-.48.51-.1.12-.38c.29-.21.51-.54.99-.73l.5.31.62-.52zm-11.17-7.26.46.3 1.24-.52.6.3.05-.71.85-.36.4.25c.57-.12.72-.44.86-.84h1.42c.26-.52 1.05-.03 1.24-.54.28.07.4.36.74.25l.4-.32.64.3.38-.27.2.67.82.65s-.05.06-.09.07h-.33l-.84.68v.3c-.5.07-.82.4-1.18.68h-.64l-.38.28h-.65l-.36.27h-.61l-.5-.29c-.46.08-.55.41-1.06.55h-.74l-1.28 1.11-.08.26-1.12-.47h-.03c-.4.51-1.3.5-1.56 1.04-.41.02-.77-.09-1 .25h-1.3q-.2.1-.37.27c-.24.33-.81.25-1.05.58-.44-.15-.58.44-1.02.29-.26.32-.64.3-1.03.25l-.25-.2-.22.08c-.5.13-.86.54-1.55.37l-.33-.24-.21.51-.4.07-.4-.3-.21.51c-.38.1-.75.16-1.03-.17l-1.84.78h-1.24l-.26.25-1.12-.48c-.2.16-.38.36-.71.17-.3-.48.33-.58.56-.88l-.26-.27c.18-.38.57.02.75-.2l.7.59.32-.53c.48.16-.06.62.38.8l.33-.6c.1.21.16.37.24.57l.95-.38-.7-.27c.23-.24.53-.1.79-.14l.47.3.34-.11q.14-.07.23-.2c.1-.14.12-.34.26-.45s.38-.13.55-.21q.2-.12.36-.3v-.28l1.22-.96h.33l.21-.52h1.05l1-.83c.38-.02.79-.17 1 .26.24-.25.62-.23.82-.4.24-.19.53-.1.75-.18.4-.14.75-.34 1.2-.3.16-.2.45-.2.68-.3.22-.1.4-.3.61-.48h.96zm-28.56-21.46.35.18-.1.08-.37-.18-.03-.07zm-1.11.2.1.1-.12-.02-.07-.06zm-8.12-.73q-.36.03-.7-.07l-.12-.1q.44-.05.81.18zm-3.57-.08-.04.09-.07-.06zm-17.07 46.92-.46.07c-.25.15-.07.4-.17.65-.22.25-.45.57-.97.45v1.28l-1.06.16.33.27-.33.65c-.28.11-.61.14-.82.38h-.64l-.98.8h-.67l-.33.56h-.37l-.47.44v.73q-.06.12-.1.14-.65.25-1.26.46v.58l.32.3c-.49.18-1.02.3-1.05.86-.36.17-.76.04-1.18.1l-.13.33-1.93 1.59h-.25c-.19.36-.46.68-.59 1.05-.56-.02-.74.49-1.2.6-.05.01-.14-.02-.17 0l-.84.66c-.24.16-.4.38-.77.47-.33.08-.59.38-.86.57l-.19.81-.4-.3-.48.4v.29c-.52.07-.82.4-1.18.68h-.63c-.58.2-.46.82-1.18 1.08l-.64.06-.1.4-.65.25.26.21c.01.04.05.09.04.1-.66.53-1.22 1.16-2.18 1.44l-.31-.23-.47.44v.48l-1.32 1-.16.01c-.28.09-.19.3-.26.45-.26.14-.62.13-.81.37-.24-.2-.21-.28.17-.67-.67-.29-.67-.29-1.3-1.1v-1.96l.28-.23-.3-.3v-2.47l.31-.28-.66-.57v-.48l.38-.45-.35-.5v-1.55a.9.9 0 0 0 .3-.84l-.33-.3v-1.93l.32-.29-.25-.2c-.01-.25.39-.37.29-.69-.05-.16.19-.38.33-.64l-.34-.43v-.48l-.35-.31v-.44l-.34-.54-.3-.43c.28-.3.28-.3.3-.75l-.3-.32v-.82l.29-.28-.32-.28v-1.92l-.32-.3.28-.23v-.83l-.34-.42.36-.48v-1.56l.34-.32-.32-.29v-.85l.57-.17c.37-.3-.13-.44-.2-.67l.24-.2c-.04-.22-.5-.37-.15-.7l1.13-.05.13-.42c.16-.18.4-.17.62.02l-.35.33.48.1.39-.29h2q.05.01.15.12l-.28.28c.1.21.32.19.5.12.56-.2.56-.22 1.05-.2.17.24-.25.24-.24.4l.02.27.93.39h.88l.39-.3.21.51q.56.14 1.13.03c.25-.46 1-.02 1.27-.52h1.15q.18.03.35.08l-.25.38c.23.2.54 0 .76.1l.38-.28a.7.7 0 0 0 .73.28c.34-.06.45.23.8.3l.54-.28h.61l.67 1.08c.36.11.49-.16.8-.3l.6.27.6-.5.36.25h.66l.35-.26.28.23 1.08-.46.3.2 1.22.06-.39.42.56.2-.13.14 1.16.05.22.52.39-.24h1l.33.23.35-.25.6.52 1.1.05c.12.1.12.1-.1.3-.24.3 0 .62-.13.89l.42.38-.33.48.47.47.98-.4.4.56c.22.2-.12.3-.21.5.2.16.44.3.23.62m7.47 50.95-.07-.4.37.12zm5.87-62.49-.36.28h-1.66l-.37-.28c-.64.12-1.08-.4-1.7-.3l-.45-.39.3-.24q-.14-.12-.24-.26-.09-.18-.13-.37c-.35-.11-.72-.19-.93-.5l.31-.28-.32-.3v-.69c-.27-.43-.48-.89-1-1.2l.26-.25-.93-1.53v-.98l-.31-.26-.1-.91c-.5-.23-.04-.84-.6-1.04v-1.1l-.68-.57.34-.31c-.02-.44-.49-.6-.77-.86q-.44-.37-.93-.7v-.88l-.3-.3.29-.24v-1.39l-.3-.29v-.83l-.5-.33-.63-1.1-.55-.17.34-.37-.68-.34v-1.23l-.34-.31v-.54l-.6-.5c-.19-.25.12-.65-.39-.85l.3-.31v-1.64l-.3-.3v-.8l-.34-.3c.4-.14.29-.54.57-.77.18-.16.13-.5.2-.78l.44.34.11-.28c.45.2.64.46.35.67.79.17.4.41.41.62q-.03.16-.1.3l-.37.08.6.15-.4.09v.35c-.05.23-.22.47-.12.7.05.11.57.28.9.29q.64 0 1.26-.2c.3-.14.35-.33.45-.5q.12-.26.2-.52c-.64-.45-.5-.89-.5-1.33 0-.47.85-.79 2-1.12l2.25.24-.04.25c.93-.05 1.81-.16 2.65-.13s1.7.14 2.16.47l.47-.25q.2.06.4.08l.65.02-.22-.16-.1-.18 2.47.16c-.23.1-.35.14-.6.23.4.04.7.08 1.01.08.1 0 .2-.1.35-.2l1.22.21 1.18.2.06.23.52-.23c.62.13.91.36.62.55l.8-.04-.09.44c.5.05.62.18.26.35.96.26-.28.18-.47.3l.3.26.17-.01.3-.29c.13.21.38.37.24.49-.1.08-.73.1-1.12.15l.02.05 1.24.09-.84.41c1.38.2-.25.3-.07.46.38.1.88.19.18.36-.1.02-.06.12-.02.19.21.33.28.67-.36.92l.54.3c.23.17.4.37 1.12.39s1.24-.1 1.53-.3c.14-.1.27-.2.29-.3q.06-.44.05-.88a8 8 0 0 1-.07-.82c.03-.36.16-.35 1.2-.27.8.06 1.1.16 1.06.42 0 .07.3.14.47.21.18-.06.5-.12.53-.19.1-.22.09-.45.15-.68q.08-.16.26-.2c.83-.02.52-.2.36-.3-1.04-.65-.21-1.2 1.04-1.7q.56-.24 1.15-.4l.15-.04h4.88-.02l.48.07.07.07c-.07.05-.16.1-.1.13.62.33.46.7.14 1.02-.27.28.02.52 0 .77 0 .1.2.2.38.26.38.14.9.2 1.2 0 .24-.17.27-.37.39-.55l.15-.34c-.62-.05-.65-.06-.43-.33.01-.02.06-.04.04-.05-.42-.2-.3-.39-.13-.57l.52.42.1-.11.85.35.43-.27 1.07-.08c.27-.43 1-.03 1.26-.5h1c.25.31.8.23 1.05.54h1.99l.36-.26.25.21c.5-.2 1.07-.35 1.4-.8.23.52.65.93 1.17 1.16l.63-.3c.34-.04.5.19.65.36.2.25.6.14.83.36.14.13.5.1.74.13l.52.3.58-.33c.66.12 1.15.64 1.91.55l.7.55.34.02c.2.25.25.58.65.8l.75.02.51.45-.58.12-.3.52h-.35c-.28.17-.12.42-.19.74l-1.08.64h-.83l-.1.43-.93.4h-.53l-.37.28h-1l-1.33 1.09h-1.04l-.54.57h-.79c-.17.18-.4.24-.67.3-.24.07-.4.31-.64.51l-.75.03-.46.53h-.8l-.36.29h-.7c-.25.42-.83.5-1.3.76l-.46-.21q-.15 0-.3.07-.3.23-.58.48h-1.35c-.73.57-.8.58-1.76.84q-.7.23-1.4.53h-1.5c-.34.38-1.11.24-1.24.85l-.63-.33-.57.3h-.64l-.58.6-.42-.31c-.5-.06-.63.33-.97.52h-1.23c-.37.18-.63.49-1.1.23l-.62.65c-.43-.13-.56.15-.8.26h-2.18l-1.36.58-.4-.28-1.13.52h-.57l-.39.28-.21-.5-.12-.02q-.22.21-.48.38-.28.14-.58.2l-.12.41-.48.1-.31.24-.36-.27h-.91l-.53.32-.64-.3-.4.53h-.5c-.17.56-.76.84-1.17 1.27v.26l-.67.27c.21.16.47.3.3.57l-.86.36-.18-.45a.46.46 0 0 0-.59.06l.32.29-.39.34.37.53-.58.18c-.02.04-.07.09-.06.12l.47.9h.63c.36.14.6.46.87.66l.15.45.39-.29c.23-.05.4.04.57.17q.27.13.57.19l.1.72.53-.24.11.45.87.14c.3.3-.03.46-.24.63.28.24.57.1.85.15l.45.73c-.28.17-.56.05-.8.09l-.26-.23c-.34.06-.46.33-.73.5h-.64l-.38.28zm1.66 65.9q.05-.12.13-.24h.1l.14.06zm3.9-1.26q.23-.15.42-.36l.06.03a.8.8 0 0 1-.48.32m.72-.53c-.06.04-.15.06-.16.1l-.07.1-.04-.05.17-.22h.2zm54.83-46.62c-.02.27-.31.11-.5.22l-.42.68.45.31c.12.16.17.19.18.23V411l-.3.26.27.29-.29.28v.54l.4.44-.4.4.34.3c-.05.23.09.47-.16.66l-.36-.27c-.4.3 0 .7-.24 1.02-.24.15-.52.06-.82.06l-.16-.42c-.61-.1-.96-.58-1.46-.93h-.64l-.37-.28h-2l-.36.27h-.85q-.1 0-.16.02l-.93.77c-.28.04-.64 0-.78.13-.22.18-.52.12-.72.27s-.38.41-.6.44a1.2 1.2 0 0 0-.67.34q-.3.23-.61.5h-.65l-.73.57h-.99l-.65.53c-.57-.15-1 .4-1.72.27l-.47.62c-.7-.24-1.03.27-1.52.24-.37.4-.93.6-1.45.8s-.96.51-1.55.57c-.25.32-.65.29-1.17.28l-.66.54h-.52c-.19.15-.38.41-.66.5-.24.1-.53.1-.65.32h-1.82l-.64.55h-.8l-1.84.79-.3-.23-.35.26c-.88-.06-1.43.53-2.18.66v.35l-.66.2-.74.73h-.65c-.34.07-.5.34-.74.5-.23.17-.47.4-.71.59l-.34.01c-.3.2-.24.56-.58.76-.27.15-.45.4-.82.38-.23.36-.69.2-1.06.26l-.11.45-.48.12-.3.5-.25.48c-.27.11-.6.14-.81.37-.37.05-.77-.13-1.13.12l.32.3-.95.4c-.05.02-.12-.01-.17 0q-.15.07-.25.17l-.84.68-1.63 1.36h-.4l-.19.45-1.19.92-.68.05-.06.96c-.37.21-.77.06-1.15.1q-.46.67-.82 1.37c-.13.28-.33.52-.63.55-.64.07-.6.56-.9.84h-.36q-.31.3-.69.57-.4.24-.85.43l.42.76c-.27.27-.58.13-.85.17l-.37.27-.32-.54c-.57-.06-.68.44-1.1.55-.1-.02-.28-.02-.29-.05-.11-.41-.48-.67-.79-.9-.06-.47.43-.56.65-.84l-.65-.57v-.54l.34-.3v-.69a4 4 0 0 1-.34-.59c-.06-.16.07-.37-.18-.48l-.4.3c-.07-.3-.03-.61-.21-.78-.21-.18-.14-.42-.34-.58l-.5-.42.54-.87-.36-.63-.57-.17v-.58c.2-.25.5-.1.77-.15.04-.01.11-.02.13-.05l.46-.84-.31-.33.24-.26-.33-.45.35-.39-.67-1.02.34-.38v-.85c-.25-.22-.56-.02-.93-.2-.17-.13.22-.17.28-.35v-.51l-.32-.29v-.81l-.35-.32.67-.2v-1.1l.37-.38-.44-.84-.65-.19.43-.75-.36-.4c-.13-.28.24-.37.36-.64l-.37-.55v-.99l-.3-.26.3-.3v-.53l-.32-.29.33-.3-.6-.19q.07-.4.3-.73l-.33-.44.28-.27v-.8l.34-.3v-.55l-.32-.29.29-.24-.27-.29.26-.27c-.08-.18-.43-.28-.3-.55l.33-.3-.33-.29.03-.31.48-.11c.24-.56.92-1.02.83-1.74l.34-.3v-.57q.3-.05.56-.17.4-.3.78-.63l-.28-.24.75-1.24c.36-.06.74-.14 1 .2.3-.05.17-.27.25-.44l.57-.17c0-.3-.29-.14-.54-.22l-.1-.48.92-.06.22-.5.8-.04.57-.7.13.1.1-.4.6-.17.07-.63c.25-.2.55-.06.88-.13l.16-.78.79-.05.5-.8c.02-.08-.1-.31.07-.53l.53.26 1-.37c-.09-.27-.4-.39-.6-.6.38-.13.75-.26.97-.56l-.3-.29.28-.22-.34-.46.35-.42-.3-.27v-.6l.9-.13.08-.1-.57-.2c.08-.31.44-.58.16-.98l-.5-.09-.15-.73-.47-.08c-.27-.18-.04-.44-.15-.62.15-.2.52-.3.3-.63-.4-.18-.99-.25-1.01-.83 0-.07-.21-.13-.22-.2-.03-.56-.6-.67-1.05-.86l-.02-.27.33-.3-.33-.3v-.52l-.3-.3q.09-.09.14-.1h1.38l.2-.48c.5-.07.88-.54 1.5-.3l.22.16h.11c.44-.32-.11-.45-.2-.67.23-.21.53-.07.78-.11.26.1.42.5.84.15l-.28-.28c.34-.39.8.02 1.17-.2l.27.6.37-.25.34.24.35-.27h1.83l-.98.4.31.3-.33.3.64.19-.45.75h-.73c-.04.11-.15.26-.1.35.16.31.4.6.65.96v.47l-.4.36.79.64c.1.22-.8.42-.2.78l.33-.23c.46.33-.05.47-.17.68l.94.44c-.05.5.3.86.5 1.3.55.09 1.16 0 1.75.06.5.25.47.8.97 1.07l.33-.25.36.27h.65l.36.26.28-.24h2.04l.33.22h2.73l.27-.22c.23.08.35.36.69.25l.76.6.62-.27.3.2.32-.22 1.05.5.37-.27.46.12-.35.32c.46.26.97.03 1.57.2l.28.2h.66l.35-.27c.1 0 .28-.04.3 0 .24.34.85.17 1 .55l.46-.32 1.28.55.31-.23h1l.4.31.55-.2-.03-.05.12-.03c.28.22.53.47.84.67s.7.2.94.52l-.32.32.2.17 1.31-.55.62.76h.44l.2-.48c.37-.3.54.11.8.17l.3-.24 1 .83.25-.2c.36-.15.74-.07 1.12-.06l.27.23h1.42l.61-.5.36.25h.66l.3-.23.9.37-.7.27c.22.25.52.11.91.17l.57.62.4-.7.24.58 1.1.05.69.57.42-.72c.62.42.2.84.44 1.15.22.16.22-.1.34-.11.27-.14.54-.07.81-.05.27.18.04.43.21.72l.26.22v1.92l.32.3-.3.23.26.27-.3.42c.16.44.72.64 1 1l-.28.24zm5.75-49.98.9-.08q.1-.24.22-.46.17-.18.37-.32h.65l.49-.37c-.04-.07-.05-.16-.11-.19-.43-.23-.56-.64-.76-1.03l.32-.32a2.2 2.2 0 0 0-1.4-.96l.3-.3c-.08-.19-.48-.27-.17-.67l.2-.17c.13-.27-.21-.37-.3-.56l.43-.37.57-.1-.35-.34v-1.34l-.34-.3.33-.3c.12-.29-.23-.38-.32-.55v-.55l.6-.5-.34-.52.44-.4-.39-.65c.05-.08.1-.23.14-.23.39.02.6-.2.8-.4.07-.06.03-.18.08-.25.2-.3.37-.64.66-.87s.72-.32 1.14-.5l.33.58c.3-.06.16-.28.3-.5.41-.07.91 0 1.4-.03l.35-.27h1.87l.57.47.37-.25.6.32h.59l.43-.27c.52.03.62.43 1.07.57l.88-.36.48.6h.81l.73.58h1c.2.47.84.1 1.14.4.35.34.85.01 1.24.19l.25.5.37-.25.7.54h.65l.98.8.33-.23c.52.32.52.32 1.03 0l.36.26h.88q.6.28 1.23.54.26.05.52 0l.47.64c.17.28.56.21.84.36q.54.26 1.1.44c.37.13.64.43 1.05.59.37.14.62.5.88.74h.78l.2.48c.37.15.87-.08 1.12.32l.27-.22.65.8h.73c.16.33.67.23.95.47.22.18.1.47.33.57q.36.11.7.3c.44.28.55.73.85 1.09q.2.27.34.58v.69c-.34.32-.5.74-.9 1.07-.3.26-.39.68-.57 1.02h-.42c-.04.11-.04.26-.12.36q-.36.37-.76.7c-.64-.09-1.08.43-1.7.31-.34.14-.5.45-.9.57q-.56.2-1.1.46c-.3.14-.74.08-1.12.12l-.26.53-.34-.57c-.24.19-.45.47-.71.52q-.4.05-.67.34c-.21.24-.57.22-.82.34v.32c-.25.31-.74-.02-1.04.28-.19.18-.54.25-.91.4h-1.56c-.19.32-.7.21-.93.49-.46.03-.88.3-1.13.7-.24.42-.61.72-.98 1.03-.34.3-.7.58-1 .82-.57 0-.69-.38-.95-.53l-.82.36-.14.67-.8.08-.61.5-.36-.25-.34.27h-.66l-.37.28h-.65l-.48.4a1 1 0 0 1-.27.14l-1 .35-.2.47h-.7l-.7.55c-.37.11-.48-.2-.73-.27h-.74l-.99.82h-1.21l-.38-.28-.2.48-.83.32-.33-.27-.4.52c-.45.11-.61.02-.8-.1q-.27-.15-.58-.2v-1.33c-.1-.25-.48-.33-.33-.65l.64-.25c.11-.3-.14-.43-.33-.58v-.58l-.29-.24.34-.43-.31-.42c.26-.22.2-.64.6-.84.04-.03.01-.18 0-.26 0-.04-.08-.07-.15-.12l-.38.25-.15-.32-.26-.34.55-.88-.28-.26v-.54l-.33-.29c.3-.2.45-.57.97-.37v-.75c-.27-.2-.57-.06-.82-.12-.54-.34-.58-.96-1.15-1.24v-.55l.35-.34-.58-.1-.2-.48-.53-.08q0-.19-.06-.46zm57.33 52.22v.27l-.34.3v2.46l-.29.24v2.27l.25.2-.33.47.37.44v.78l-.33.29v.54l.33.29v1.93c-.1.07-.23.13-.24.2a3 3 0 0 1-.7 1.42c-.1.12-.04.35-.06.57l-.47.4c-.58-.15-1 .4-1.76.27l-.49-.52h-.83l-.19-.47-1.2-.44-1.25-1.03h-1.07l-.62-.78-.71-.27-.27.22-.32-.53-.36-.02-1.48-1.27-1.3-.47-.14-.41-.5-.09c-.45-.2-.4-.77-.9-1.03-.55.07-.97-.25-1.45-.4a.6.6 0 0 1-.44-.53c.01-.14-.15-.18-.33-.22-.55-.14-1-.43-1.55-.6-.18-.05-.3-.25-.56-.22l-.5-.03-.1-.44c-.68.1-.83-.57-1.47-.67-.54-.1-.98-.5-1.45-.78-.48-.27-1.02-.4-1.63-.64l-.27-.48-.25.21q-.08.04-.12.04l-.95-.77-.33-.02a1.6 1.6 0 0 1-.72-.83h-.6c-.4-.15-.62-.56-1.12-.81h-1l-.73-.75c-.81-.23-1.35-.4-1.74-.8v-.3q-.3-.07-.57-.17-.15-.08-.25-.2h-1.34c-.39-.51-1.22-.56-1.65-1.09l-.77-.03-.76-.84-.06-.42c-.4-.39-.56.07-.82.15l-1.31-1.08h-.65l-.38-.28h-.98l-.35-.26-.35.24c-.29-.2-.05-.46-.21-.7a.4.4 0 0 0-.2-.1c-.33 0-.67.03-.88-.26-.38.1-.53-.26-.85-.31-.25-.04-.46-.21-.7-.26-.37-.07-.5-.34-.76-.5-.22-.14-.42-.3-.5-.36l-.17-.5c-.4-.04-.83.04-1.07-.3-.38 0-.78.04-1.03-.28q-.48.07-.5-.37c-.01-.14-.26-.27-.43-.43l-.49.25q-.15 0-.3-.06-.3-.23-.6-.49h-.7a4 4 0 0 0-.57-.48 2 2 0 0 0-.56-.16l-.02-.34-.6-.17-.1-.38-.46-.37-.34.25-.34-.25-.4.28-.14-.47-.55-.16c.04-.46-.53-.62-.74-.95-.13-.3.3-.37.33-.68l-.33-.43v-1.89l.36-.32-.45-.8.66-.19c.02-.03.08-.07.08-.1v-2.5l-.5-.12-.44-.68.26-.26v-2.45l.34-.3-.32-.3.28-.22c.13-.54-.02-1.14.08-1.72.56-.2.04-.83.62-1.05l-.3-.3c-.06-.3-.08-.61.31-.82-.12-.42.31-.36.57-.48q.33-.2.6-.49h.68l.36.28c.44-.55 1.22-.66 1.83-.98l.01-.28q.06-.08.12-.1h1.31l.4-.3h1c.17-.26.55-.23.8-.38.3-.16.38-.4.5-.71l.38.24 1-.78c.5-.04.86-.44 1.38-.33.31-.4.8-.2 1.22-.25.36-.18.76-.31 1.06-.54.25-.2.38-.5.53-.73.44-.2.83-.09 1.2-.1h1c.2-.22.44-.36.53-.68.07-.26.64-.21.89-.49.18-.2.38-.45.81-.5l.5.29.14-.38c.06-.23.34-.13.5-.22s.29-.28.6-.22l.33.21.81-.32.12-.35 1.52-.61.22.18.23-.1c.4-.25.34-.77.84-.96h1q.45-.25.59-.76l1-.34h1.85l.11-.44.46-.38h1.04l.2-.47c.35-.18.75-.05.96-.07l.91-.39.2-.45.36.23c.26-.18.23-.54.57-.68l.83-.35.2.17.14.07h1.5c.6-.25 1.16-.6 1.89-.61.1-.47.56-.74.95-1.05h.99l.48-.4-.32-.29.49-.4.38.28c.22-.46.86-.48 1.24-.79.35-.27.64-.62 1.17-.67l.13-.43.5-.08.19-.46c.2-.11.48-.08.7-.26s.13-.45.35-.57c.26-.15.17-.41.3-.6l.76.36.23-.6.48-.08c.43-.29.61-.75.87-1.2l-.74-.28c.29-.44.98-.4 1.29-.8.06-.3.15-.63-.28-.85l.32-.29-.34-.3.61-.18c-.01-.25-.3-.32-.41-.46l-.5-.09.37-.5-.4-.44v-.5l-.34-.3v-.55a.6.6 0 0 1-.33-.63l-.97-.79-.04-.54-.86-.48-.04.05-2.17-1.78-1.23-.46-.12-.38c-.23-.19-.53 0-.87-.16l-.26-.18-.25.2c-.04 0-.1.03-.12 0l-.95-.77h-.35a5 5 0 0 0-.58-.48 2 2 0 0 0-.54-.17l-.11-.45-.6.3-.51-.28-.33.24c-.48-.54-1.44-.63-1.78-1.2l-.16-.44h-.7l-.73-.57h-.96c-.16-.1-.3-.26-.41-.25-.41.04-.72-.12-1.04-.29a3 3 0 0 0-.7-.27 3 3 0 0 0-.63 0l-.13-.49-.48-.1-.32-.24-.35.27c-.42.05-.56-.25-.82-.4v-.32l-.6-.17-.1-.39c-.44-.2-.95 0-1.68-.18-.13-.12-.37-.48-.74-.64q-.59-.24-1.07-.65h-1.06l-.67-.77.19-.19-.3-.28c.3-.3.72-.08 1.2-.16l.49.6.9-.43.24-.43.31.25.36-.22h1.26l.4-.27h.86l-.29.42c.04.03.08.1.12.1h1l.42.31.17-.88.46.29h.88q.4-.01.81-.05c.23-.43.86-.05 1.15-.38.2-.23.52-.07.8-.13l.34-.27c.37.31.37.31.46.55.13.33.41.23.58.32s.29.28.6.22l.37-.25h1.03l.64-.67.24.6c.37.14.75.05 1.17.05l.15-.43 1.43-.36h3.7l.36.24h.65l.35-.26h1.32l.37-.28h.65l.39-.28.24.55h1.7l.4.32.36-.63 1.42.57 1.72 1.42-.3.4.27.28v.8l.33.3-.24.21c-.17.29-.07.6-.07.94l.63.19v1.4l.34.28-.25.26.39.67.55.16v.34l-.63.18-.05.58-.46.57.8.3v1.88l.34.32v2.15l-.65.93v.78l.38.36-.37.53v.63c-.1.3-.61.42-.24.78l.44-.19q.08.06.1.1.01.16 0 .28v3.58l.31.25.05.5-.4.46.36.5v1.06c-.05.14-.44.22-.3.53l.3.28-.31.29c-.13.29.22.39.32.55v.82l-.38.36.33.48-.25.26.3.28v.82l-.33.3v1.36l-.3.25.3.33v1.08l.36.29v2.2l.3.25c-.11.14-.3.29-.3.43.01.14.2.3.31.47v1.06l-.3.24.28.3v.58l-.28.23.3.3v1.9l.34.3c.13.28-.19.4-.34.58v1.34l-.33.32.61.2-.62.99c.04.35.5.45.66.72l-.3.25v4.13l-.33.27.28.3-.3.27.32.28-.31.29.28.23-.33.42q.2.25.36.54.04.21 0 .43l-.31.3.31.28-.25.2c-.16.3-.07.61-.05.92l.25.21-.6.96v.73l.65.56-.24.2c-.27.38.09.64.2.96q.14.43.33.82l-.6.18.39.47-.72.7.28.22v1c.34.51.78.9.7 1.5l-.34.3v.55l.57.44c.17.29.07.56.1.87l-.3.34v.57l.28.23v2.77l-.3.27c0 .21-.1.44.09.66l.46-.19c.23.3 0 .63.12.89l-.36.35.62.18c.04.6.04.6-.6 1.42zm18.44-71.46v-.53l.84-.7.35.62.58-.22c.34-.17.73-.1 1.1-.09l.6.5.76.07c.25.2.02.45.21.73l.23.21-.28.23v.68q-.21.31-.36.66c-.06.17.04.36-.19.49h-.34l-.31-.55-.36.26-1.32-1.08-.35.26c-.24-.22-.2-.63-.59-.74a2 2 0 0 1-.9-.5zm-3.92 45.17-.27.22h-1.34c-.17.18-.4.24-.67.31-.24.06-.4.3-.66.52h-1.43l-.11.43q-.8.34-1.66.66-.26.04-.53 0l-.21.5c-.47.11-.96-.01-1.43.06l-.54-.88.36-.4-.28-.22v-1.36l.56-.86-.33-.49.4-.35v-1.64l-.34-.3V379l-.32-.3v-.76l-.31-.34v-1.03l-.35-.35c-.14-.23.1-.37.31-.53v-.54l.34-.3-.31-.28.3-.28c.14-.32-.28-.4-.32-.62.1-.23.29-.47.32-.71q.01-.38.34-.58l-.33-.3v-1.64l-.24-.2-.1-.25v-1.21c.23-.17.47-.31.27-.63l-.47-.08-.41-.36 1.29-2.08v-.73l.74-.3c-.28-.56-.8-.55-1.07-.79s-.46-.58-.67-.88c.1-.23.29-.46.32-.7 0-.24.12-.47.33-.59v-.83l-.3-.33c-.07-.33.23-.38.32-.55v-.52l.29-.24v-.6l-.3-.3v-.7l-.7-1.08.37-.42v-.51l.35-.3v-1.96l.64-.16c.23-.09-.1-.43.06-.65l.26-.22v-1.72l-.6-.19c.06-.26.33-.15.5-.21l.13-.23q.17-.69.63-1.24l-.45-.7h-.06l-.93-.45.48-.56v-.5c.64-.42.78-1.18 1.57-1.53h.67l.2.48.12.04.24-.47c.4-.21.55.18.89.23l.64-.29c.45.03.58.4.92.57h1.17l1.19.52h1.13c.4.22.79.4.65.83l.46.02.7.56q.29-.02.52 0c.32.03.49.3.85.33.22.02.4.3.6.46.36.05.79-.05 1.02.3h.66l.38.28h1.33l.7.58.57 1 .56.17-.3.32V352l.27.22v1.46l-.28.23.32.3v1.07l-.31.3.37.35-.29.43q.16.4.28.8l-.4.37.57.16c.1.34.1.34-.2.66v.82l.28.23v.62l-.28.22.29.3-.3.28v1.07l-.68.58.3.24v.72l.42.6-.37.36.3.27-.31.3c.64.79.64.79.6 1.4l-.26.22v1.28c-.1.27-.48.35-.34.66l.3.28-.36.34.36.65.05.7.25.2c-.07.23-.34.38-.31.68.02.22-.23.46-.35.69l.38.33v.54l-.34.3.02.3.58.17c0 .25-.37.38-.29.69.05.16-.19.38-.31.6l.72 1.15-.36.4.29.23-.27.3.28.28v.91l-.99.65v.6c-.17.28-.57.47-.85.74-.47-.08-.7.48-1.2.27l-1.22.54h-.83c-.46.33-1.15.37-1.4.84h-.56c-.48.02-.53.54-1.06.57-.32.02-.62.27-.92.42l-.04.27c-.2.23-.5.05-.86.18m11.24 11.75-.65.38.45.5-.4.43c-.2.35.58.47.27.86l-.6.19.32.33c-.13.04-.27.14-.37.11-.24-.06-.46-.2-.7-.25-.2-.05-.45.04-.6-.15v-.3l-.57-.17-.6-.49h-.7l-.2-.47c-.23-.2-.53 0-.88-.17l-.21-.17-1.05-.04c-.27-.3-.24-.8-.9-.81-.17 0-.22-.14-.27-.28a5 5 0 0 0-.47-.8l-.36-.02-.32-.55-.41.31c-.07-.3-.04-.61-.21-.78s-.16-.41-.31-.58l-.52-.1-.15-.8-.4.27c-.3-.16-.24-.33-.03-.52h.36l.31-.56.27.22.22-.06c-.2-.38.57-.47.36-.84l.94-.4 1.11-.05-.32-.34c.04-.05.07-.15.13-.17.25-.06.51.04.79-.1.4-.21.85-.37 1.17-.72l.36.24.35-.25h1.32q.2-.54.7-.82h.65l.43.3.15-.84c.51.15.13.48.26.65l.33.32v.75l.37.41c.23.3-.31.6-.37.98l.31.3c.09.48-.04.98.07 1.46l.64.18-.43.45.46.49-.26.43c-.43.65.43 1.22.15 2.04m1.4 44.3q-.13-.12 0-.26zm.34 1.94v.14l-.1-.02-.02-.22zm.07 1.9a.4.4 0 0 1-.04-.2l-.24.23-.13-.2.36-.15.02.12a.4.4 0 0 1 .2.02zm3.52-68.65.68-.19c.14-.18-.14-.19-.21-.42v-.9l-.75-1.12.37-.43v-.5l-.32-.29v-1.66q.02-.04.13-.11l.36.25.5-.4-.67-.26.32-.3v-.81l.67-.58-.3-.24.29-.3v-1.1l-.3-.28v-.78l-.43-.46.76-.75-.53-.1-.3-.53-.43.31c-.17-.48-.04-.92-.1-1.33l.56-.12c.24-.19.06-.43.13-.66l.63-.5.06-.87.28-.3-.29-.23.3-.29-.63-.56.3-.28c-.26-.22-.55-.08-.86-.13l-.2-.41.73-.43v-.92c.22-.32.63-.06.9-.21l.58-1.05h1.03l.37.27c.16-.16.39-.32.46-.52s.13-.3.4-.32c.3 0 .45-.43.84-.22l.1.1-.3.28c.22.22.52.08.8.13l.36.27H394l.38-.29.24.56.4-.24h1.1l.1.42c.46.25 1.05-.02 1.55.17l.25.2.4-.3c.4.14.81.31 1.41.55h1.18c.25-.12.55-.31.97-.24l.92.83h1.16l.37.28h2l.26.22.82.08.11.42c.17.19.48.04.72.1q.29.12.53.3l.72-.32c.52.16.78.62 1.24.85q.15 0 .32.04.06.02.12.1v.27l.87.37.32-.23.44.42-.26.26c.16.27.47.1.7.15.4.18.75.38.62.81h1.8l.37.28.39-.3q.2.06.4.15c.14.07.37.21.34.28-.1.37.56.48.35.84l.72.3.57.19.13.42.52.1q.25.23.52.43.27.12.55.17c.15.31-.13.44-.3.6v.83c-.36.35-.86.5-1.34.68l-1.23.5-.2-.17a.7.7 0 0 0-.46.34l-1.05.45h-.57l-.29.24c-.2.01-.52-.04-.71.07-.23.12-.43.26-.7.27-.24.37-.7.17-1.03.29-.37.66-.41.61-1.27 1.08-.5.26-1.05.38-1.52.67v.27c-.32.3-.74.09-1.26.17l-.44.52h-.8c-.27.3-.3.74-.89.83-.4.07-.7.42-1.21.21l-.13.48-.92.4h-1.93l-.55.56h-.76l-.3.25c-.5-.07-1.01.13-1.4.36q-.69.42-1.41.76H397l-.21.52c-.57.08-1.17 0-1.63.04l-.9.36-.2.46h-1.37l-.65.53-.7-.34-.26.6-.71.06-.4.22-.68.06-.6.49c-.25.03-.54.02-.77.1-.19.09-.32.26-.63.2l-.15-.32q-.1-.15-.3-.39v-.79l.26-.26zm53.46 48.63-.35.55c-.05.19-.21.51.27.7v1.13c-.33.26-.34.72-.8.97h-.76l-.46-.52h-1.2l-.64-.8-.34-.06-1.3-1.07h-.7c-.3-.5-1.03-.59-1.5-.96-.48-.37-.63-.94-1.18-1.25h-.9q-.22-.15-.47-.28a2 2 0 0 0-.43-.09l-.02-.35-.6-.17q-.05-.15-.1-.4c-.11-.02-.3-.02-.4-.1-.97-.77-2.32-.98-3.38-1.6-.5 0-.73-.37-1.05-.6h-.65c-.49-.29-.74-.8-1.42-.87-.4-.32-.73-.76-1.2-.95-.76-.3-1.3-.9-2.2-1 .01-.7-.82-.7-1.26-1.03l-.24.2c-.35-.03-.43-.35-.97-.48h-.47l-.54-.56h-1.15l-.21-.5c-.47-.02-.73-.32-1.1-.61h-1.19l.33-.45c-.34-.22-.74-.05-1.12-.1-.28-.47-.6-.88-1.24-1.12-.52-.2-.9-.6-1.73-.8h-.38l-.37-.3h-.66c-.3-.16-.43-.52-.9-.55-.18-.02-.33-.22-.5-.32-.21-.12.05-.51-.4-.5-.27.02-.36-.24-.53-.24-.32-.01-.47-.2-.7-.3a1 1 0 0 0-.52 0l-.93-.39q-.52-.46-1.1-.88a2 2 0 0 0-.97-.37c-.48.03-.75-.34-1.19-.33-.37-.47-1.05-.6-1.54-.95-.44-.33-1.1-.45-1.66-.68l-1.65-.7q-1.66-.69-3.32-1.35c-.07-.23.11-.48-.15-.69l-.35.24c-.17-.3-.34-.62-.7-.8l-.37-.02-.2-.48-.5-.1-.12-.4-.25-.22.9-1.45-.27-.22.32-.3v-.8c-.32-.15-.26-.47-.46-.68q-.26-.24-.6-.5l.72-1.15v-2.93l-.32-.3v-3.26l.31-.3-.37-.34.36-.56v-1.73c.37-.43.5-.94 1.03-1.2.49-.25 1-.45 1.62-.7h.6l.18-.47c.5-.12.9-.5 1.51-.38l.21-.48c.3-.15.5-.02.77.28l.46-.61h.83l.72-.56h.85q.68-.32 1.4-.54.17-.03.34 0c.37-.1.46-.53.9-.55.38-.03.47-.38.76-.47q.51-.16.94-.49c.22-.17.54-.24.94-.41h.88c.47-.57 1.32-.67 2.07-1.09h1.48l.62-.32.66.3c.46-.02.58-.4.9-.56h.5l1.4-.54q.22-.03.46.01l.26.22c.3-.2.67-.28 1.02-.24l.37-.27h1.1l.52-.56h.66c.35-.15.6-.47.9-.71l.02-.28c.31-.15.67-.24.94-.47.25-.2.62-.3.98-.47h.9c.18-.14.37-.38.65-.5.22-.1.51-.1.68-.31.4.13.51-.3.94-.3l.44.27.25-.21c.88-.27 1.39.5 2.2.51l.07.68.29.3-.36.29.71.37v.72c.9.46 1.2 1.28 1.68 2 .29.46.47.96.84 1.37.22.27.1.52.2.76l.25.2-.11.2c-.23.18-.17.5-.45.68-.12.07-.14.42-.03.5.32.26.26.69.66.9v1.1c.25.12.28.34.38.55.1.2.38.34.6.51l-.3.3v.52l-.35.31.63.5.07.9.6.5-.58.85.4.63.53.15q0 .25.03.47c-.05.28-.54.4-.25.77l.45.08c.01.01.08.04.08.08v1.34l.37.34v.53l.46.4-.44.46v.56l.6.5.2.47h.37l.87 1.41-.36.4v.54q.06.08.13.1c.26.04.57 0 .52.42l-.7.64 1.05 1.72v.74c.53.21.58.72.97 1.05l-.3.28.33.29c.12.28-.21.39-.32.55v.59l.62.18v.9l-.29.3.64.18-.63.91 1.32.5q-.03.24.01.5.11.21.3.4l-.66.2.67.58-.32.3.03.3.63.19-.27.29c.03.26.32.11.72.35.02.01-.16.26-.1.49l.33.3v.53l-.35.32.53.14c.35.45.5 1.08 1.17 1.45l-.32.3.3.28-.3.29.3.24-.3.3c.2.17.56.34.62.55q.1.34.38.57v1.95l.65.19-.3.32v1.72l.64.35v.65l.42.46-.4.42v1.36zm14.36-8.99.3.4-.28.23v1.41l-.69.45v.91l.25.2c.16.2.06.43.06.63l-.29.29.29.24-.31.31v1.05q.02.05.08.1l.24.2-.33.3v.54l-.35.3v.54l-.29.23v1.6l-.37.4v1.9l-.32.26v.8l-.34.32v1.63l-.35.3v.45l-.48.77h-.67c-.4-.26-.04-.67-.25-1.03l-.44-.08-.44-.7.27-.25v-.26l-.33-.3v-.85l-.63-.18c-.02-.2.06-.5-.09-.62-.27-.23-.28-.46-.3-.74 0-.22-.4-.3-.33-.57q.1-.37-.32-.6l.31-.28-.32-.3v-.54l-.3-.24-.06-.88-.28-.23.26-.27c.03-.5.03-.5-.27-.84l.3-.29-.33-.3v-.53l-.35-.31v-1.63l-.97-.8.31-.3v-2.74l-.31-.28c-.07-.31.02-.72-.03-1.12l-.24-.2-.08-.24v-.9l.31-.32-.32-.27v-1.13l-.65-.2v-.59l.65-.56-.26-.21.35-.7q.23 0 .42-.06.21-.1.38-.27l.23.52.46-.19c.37.34-.1.47-.25.7l.14.35h1.44q.23.27.54.47c.26.14.6.17.8.4q.25.31.6.47c.26.08.52.12.67.32h.67l.66.51.53.13v.57c.3.17.31.46.5.73l.35-.28.45.73-.24.2c.13.4.68.33 1 .6l-.64.18q.13.29.28.54m61.35 4.77-.31.29.29.29-.29.24.29.29-.3.27.28.27q-.26.4-.57.78-.35.33-.72.6l.65.57-.3.27.37.38-.38.51v1.1l.76.48-.41.6.28.23v1.38l.3.24c-.27.41-.4.9-.95 1.11 0 .14-.03.24.01.32s.15.13.23.2l.07.09c-.4.25-.3.79-.98.95h-.38l-.9-.37c-.24-.2-.61-.42-.86-.72-.27-.34-.86-.18-1-.58l-.4.29q-.59.06-.47-.42l-.52-.38-.76-.08-.1-.4-1.42-1.16c-.5 0-.73-.35-1.06-.59h-.63c-.6-.33-.97-.85-1.63-1.14-.56-.24-.99-.7-1.49-1.08h-1.04l-.15-.81-.6.3c-.48-.17-.75-.6-1.18-.85l-.39.27-.14-.43c-.45-.09-.72-.47-1.13-.64a6 6 0 0 0-1.16-.42l-.03-.61-1.33-.78v-.3l-.84-.68-.35.26-.95-.78c-.27.05-.44.45-.86.12l.24-.26-.35-.67c-.57.01-.74-.53-1.2-.6s-.59-.4-.9-.57h-.66l-.37-.28h-.65l-.5-.4v-.28l-1.61-.68h-.87l-.36-.28-.38.28c-.44-.64-1.36-.67-2-1.1h-.62l-.72-.58h-.7l-.22-.51-1.15-.05-.11-.42c-.3-.25-.7-.05-1.22-.13l-.46-.52h-1.14l-1.17-1.01-.99-.37h-.82l-.38-.28h-.66l-.38.28-.2-.47c-.32-.12-.8-.2-1.14-.43-.68-.47-1.28-1.02-1.91-1.54q-.49-.02-.8-.4-.47-.49-1.1-.76c-.48-.19-1-.33-1.34-.68l.32-.3v-.8l-.31-.3.28-.23v-.89l-.24-.2.75-1.25.8-.08q.06-.18.1-.42l.57-.16.1-.38c.34-.22.75-.06 1.17-.1l.44-.43.1-.65 1.13-.05c.08-.06.16-.18.24-.18.7 0 1.27-.5 2.01-.35.21.06.44 0 .6-.15.29-.3.93.08 1.14-.4h.72q.37-.36.79-.67c.24-.15.54-.24.95-.41h1.51l.4-.29h.94q.52-.28.75-.82l.34.24.61-.5c.35-.08.8.07 1.03-.3h.94c.31-.1.23-.3.3-.46.23-.2.53-.05.78-.1l.35-.26.35.24.63-.52h.94c.46-.33 1.15-.37 1.4-.83h.7l.39.27.24-.55.35.23 1.42-.76c.48-.25 1.02-.4 1.49-.71a5 5 0 0 1 1.37-.6c.43-.13.78-.47 1.31-.37q.55-.33 1.19-.32c.22-.37.7-.14 1.02-.3q.14-.08.26-.2h1.34l.33-.55c.17-.28.55-.25.82-.39l.67-.29.1-.4H502l.4.26.13-.48.55-.17.11-.37.29-.1q.63-.28 1.1-.76.33-.3.73-.6h.8l2.33-.95.13-.33q.63-.16 1.07-.65c.26-.32.84-.23 1.06-.58h1.87l1.58.65q-.48.8-.93 1.61c-.05.11.01.27.03.44l.48.08c.48.67.74 1.48 1.48 2.06l-.27.22-.09.63-.62.2.3.3a5.3 5.3 0 0 1-2.26 1.38c-.32.12-.76.14-.94.46-.17.28-.6.19-.82.4l-.8.67h-.53c-.47.19-.95.34-1.4.56-.4.2-.86.3-1.2.6-.35.3-1 .34-1.2.77-.44.02-.86-.12-1.03.3l-.3-.26-1.16.5h-3.24c-.2.32-.7.23-.95.48-.07.08-.3.06-.45.08-.1 0-.29-.01-.31.03-.27.45-1.02.03-1.28.48-.5 0-.72.36-1.04.59h-.34c-.17.26-.47.52-.48.79-.03.5-.69.19-.82.53-.11.32-.63.25-.86.5.31.18.42.42.13.95l-.48.25v2.05l-.34.31v.82l.31.28-.3.29.45.37.55.1v1.47c.44.27.94-.06 1.32.24l-.32.29c.2.24.5.1.75.14.27-.05.35-.4.77-.23q.08.05.15.13c.07.11.11.35.15.34.55-.02.67.5 1.07.56.46.05.6.36.94.55h3.06l.42.57h.89l.35-.26h2.34c.04 0 .08.06.14.1l-.32.32c.2.06.45.06.55.17.44.47 1.24.56 1.63 1.06H509l.24.2c.32.13.65.04.97.07q.48.22.97.41c.33.13.25.48.47.67l.33.03c.15.08.5.83.54 1.17.34.57 1.16.54 1.68.9v1.09l-.32.3.3.23-.28.3.34.33v1.11l.6.13c.09.37.02.78.04 1.18l.34.3zm-.95-17.3c-.3.42-.42.94-1 1.2-.82-.47-.96-.62-1.18-1.1l-.8-.05-.42-.55v-.4c.29-.2.7-.2.93-.48.22-.28.72-.17.91-.48l.31.26.72.03.47.4-.33.28v.54zm19.78 43.06-.15.18-.26-.12v-.17zm-.41-.46v-.17l.24-.01zm-.32-.48h.59l.15.03q0 .03-.05.08a1 1 0 0 1-.53.04l-.17-.13zm-310.75-81.67c.55.27 1.23.42 1.58.35-1.22-.4-1.22-.4-1.58-.35m32.79-7.21.15-.1a4 4 0 0 0-.72-.1q-.5.05-.99.16c.46.2 1.04 0 1.55.04zM293.64 448c-.32 0-.55.17-.55.42.04.28.28.5.56.48.27.01.49-.2.5-.46v-.03c0-.24-.2-.4-.51-.4zm11.5-10.68.22-.03.18.25.12-.05q-.09-.15-.2-.26a2 2 0 0 0-.64-.17c0 .07-.02.17.03.22.1.1.1.11-.09.2l.38.14zm-8.07 9.61c0 .06.1.12.16.14.04 0 .15-.07.15-.11q-.02-.07-.13-.22c-.09.1-.2.15-.19.2zM.03 402.5q.31.1.67.18l.09-.22-.67-.24zm259.68-69.77-.47-.17-.06.2.46.12zm271.5 30.87.2-.04.45-.05q.17 0 .34.04l-.44-.67.34-.01c.04-.01.09-.14.06-.17q-.18-.15-.39-.27v-.03l-.03-.3h-.17q-.03.15-.02.3c.02.36.07.72-.27 1.02q-.04.07-.07.18m-.87-2.22c.26.24.79.15.98-.15-.24.04-.62.25-.49-.22l-.25-.04c-.2.03-.43-.24-.6.04s.24.25.37.37m2.2.8c.04.01.07.07.12.07l.56.05-.22.23.3.22q.2-.17.35-.37c.03-.05 0-.19-.05-.2a.4.4 0 0 0-.28.03l-.09.07c-.18-.18-.28-.3-.4-.4l-.22-.16q-.2.14-.38.32zm-.88 3.74-.13.54.87.21c-.06-.12-.08-.23-.15-.3zm.23-5.36.29.02c0-.07.04-.17 0-.2q-.22-.21-.53-.45l-.16.3-.15.18.28.05zm1.64 5.25q-.15.04-.3.13c.1.08.2.23.3.22a4 4 0 0 0 .7-.12c-.1-.36-.43-.26-.7-.23m-1.5-4.72c-.18.2-.32.4-.51.66-.02-.01.03.04.05.03.36-.1.65-.28.74-.6.02-.07-.05-.16-.07-.23zm-2.63.22q.06.05.14.08l.38-.32-.53-.46-.29.44.49-.04zm4.61-.05.24-.36-.07-.05-.4.26-.06-.08-.25-.14-.2.37.3.03zm-1.04 1.66-.14-.06-.3.37-.26.11q.03.07.1.13l.42.17-.12-.26c.53-.02.07-.35.29-.46m1.24.32q.07.07.17.1c.03-.05.12-.1.1-.15l-.23-.6-.32.2q.14.26.27.45m-.67.78.05-.42-.16-.07-.44.27zm-5.01-2.23-.36-.51q-.17.19-.16.23.16.24.37.47c.05-.06.17-.15.15-.19m6.6 3.32q.08 0 .12-.09 0-.08-.07-.13a.54.54 0 0 0-.74.13l.68.1zm-9.87-1.23q.24-.02.46-.11l-.03-.15-.62-.07-.07.1c.08.1.16.23.26.23m7.91 2.5.48.65c.34-.38-.27-.48-.22-.77zm-8.4-2.66q-.24-.09-.5-.12v.1l.56.42c-.03-.21 0-.36-.07-.4m4.91-1.26.85.09c-.33-.38-.65-.4-.85-.1m4.04 5.93.14-.08-.23-.43c-.08.08-.23.2-.2.24.04.1.18.18.29.27m.88-4.54.72-.26c-.27.02-.65-.18-.72.26m-7.42-1.06-.14.04-.02.39.51-.03zm-1.28 2.1-.12-.45-.58.35zm-.27-2.7-.45-.3c-.05.06-.15.16-.14.17q.18.16.39.27zm-11.88 5.88-.08-.53-.35.04c.34.07-.08.59.42.48m22.74-2.76c-.06-.05-.16-.14-.17-.13q-.18.09-.35.24c-.01 0 .06.09.13.16zm-5.8-4.7.14-.23-.6.12c.15.2.28.27.45.1m-6.54 4.16a3 3 0 0 0-.5-.08c-.04 0-.08.17-.14.3l.6-.11zm5.36-2.74v-.16h-.54c0 .05 0 .14.02.14zm4.11 5.58.11-.04-.23-.48c-.38.35.03.38.13.52m-90.18 83.33c-.02.07.05.17.08.24.08-.04.22-.06.24-.12.19-.44.15-.5-.4-.6l-.26-.1a.3.3 0 0 0-.2.07c-.03.02.02.14.06.16l.66.22c-.04.03-.16.07-.17.12zm-.3-2.55c.3.2.5.15.7-.22l-.44.18.09-.5h-.34a.5.5 0 0 1-.07.46c-.02.01.03.06.06.08m1.76 3.84a2 2 0 0 0-.52.14c.04.06.08.15.14.15h.53l.1-.08c-.08-.07-.17-.22-.25-.21m11.9 4.77c.06.01.2-.08.2-.12a.3.3 0 0 0-.17-.19q-.15-.04-.32-.06-.01.13.03.22.1.13.26.16m-11.65-3.32q.08.16.23.22c.04.02.15-.07.3-.14q-.15-.15-.34-.22c-.04-.01-.2.12-.2.14zm3.36 2.01c-.02.04.1.1.15.16l.27-.2-.22-.23a1 1 0 0 0-.21.28m-.98-.68a2 2 0 0 0-.48.2l.6.11.08-.06c-.07-.08-.15-.24-.2-.24m.69-.06-.06.38q.02.1.1.14.1.03.19-.02a.2.2 0 0 0 .02-.18zm-5.03-4.8q.21-.1.41-.23a.2.2 0 0 0 0-.17.3.3 0 0 0-.21-.01q-.15.17-.27.36zm5.12 4.41-.15-.04-.15.32c0 .02.11.07.17.1zm-225.5-2.78.33-.23q-.27-.17-.56-.3a1 1 0 0 0-.33.05c-.03 0-.04.08-.06.13l.35.06zm2.06 1.72.16.25.71-.44-.33-.17zm16.66-1.7a.4.4 0 0 0-.24.06q-.2.13-.4.3l.27.2.24-.27.06-.02c.07-.03.16-.06.18-.12s-.05-.13-.1-.14m-18.28-6.1-.22.36.3.15.22-.23.04.38.28-.1c-.3-.15-.22-.52-.62-.56m.32.87-.23.08-.05-.15-.18.22.2.17.2.13q.12-.1.23-.24a.2.2 0 0 0 0-.17c-.02-.03-.12-.05-.17-.04m1.68 6.25-.24-.28-.5-.06.4.44zm-2.4-.33q-.06 0-.11.03-.19.23-.38.5c.37 0 .6-.18.58-.42a.2.2 0 0 0-.08-.11m.3-4.88h.58l-.36-.5zm-.82-1.2q.07.05.15 0c.04-.01.09-.09.08-.1q-.2-.18-.52-.41c-.04.1-.1.18-.08.21q.17.18.37.31m2.46 8.15c-.2.04-.36.14-.21.42l.41-.32c-.06-.03-.14-.1-.2-.1m14.94-1.66q-.03.2 0 .4.08.04.16.01a.2.2 0 0 0 .08-.13q0-.19-.03-.38c-.07.04-.2.06-.21.1m-10.23 3.38c-.04.05 0 .13 0 .2.08-.03.2-.03.23-.07q.1-.21.17-.42l-.08-.03q-.17.15-.32.33zm-2.76-1.68-.25.22q.02.04.17.17.15-.1.27-.24c0-.03-.13-.11-.19-.15m5.1 1.52-.03.07.35.2.17-.22-.08-.08zm-9.52-7.18-.43-.19-.06.17.42.15zm-1.6 2.33.22.34.2-.12-.3-.28zm10.57 5.1v.36h.25l-.08-.37zm3.89-.68.33.2.12-.1-.34-.24zm.74 0q.15.15.33.26l.16-.1-.37-.26zm-13.16-5.12v.4c.32-.02.19-.22.2-.36l-.2-.05m18.7-1.25.15.3.18-.09-.17-.27zm-53.17-122.85c.07-.04.07-.18.1-.27-.13-.03-.32-.1-.36-.07q-.3.27-.57.59l.14.1q.36-.14.69-.35m3.63 3.33q.12.05.23.01c.05-.02.06-.12.04-.17q-.07-.2-.17-.4l-.02-.1-.5.16.23.32q.08.12.2.18m-17.65-11.98a4 4 0 0 0-.5-.3c-.03-.01-.24.17-.22.2q.14.2.31.37zm4.36 1 .1-.05a1 1 0 0 0 .02-.39c-.02-.04-.25-.07-.36-.04-.08.01-.17.19-.15.21q.18.16.4.27m8.17 6.93c.16.07.56-.28.54-.47l-.65.22c.03.06.03.22.11.25m-10.4-9.05c.05.01.24-.15.22-.2-.04-.1-.17-.18-.33-.33-.1.16-.22.27-.2.33q.11.17.3.2m12.3 13.4c.02 0 .04-.07.03-.09l-.44-.35-.31.34.57.13zm-.65 2.5c.07.01.16-.07.25-.1l-.39-.36c-.12.26-.13.42.14.46m.86.78c.06-.02.1-.1.15-.15l-.5-.21-.05.08c.07.14.1.34.4.27m-.17-2.96c-.34-.14-.33.21-.51.32-.03.01.04.13.08.25zm-2.53-5.59c.03.01.14-.1.16-.16s-.08-.1-.13-.16l-.17.17-.28-.12c-.02.28.26.23.43.27zm3 2.5-.67.17c.52.16.62.13.68-.17zm-.05.95q-.16.2-.3.43l.13.07.4-.43zm-18.52 2.99-.47.32c.34.15.4.1.49-.33zm19.59-1.34.26-.34-.05-.08c-.11.03-.27.04-.32.11s0 .2.02.3zm-22.14-.11-.34-.3-.13.1.3.32zm4.34-10.2-.25-.13-.13.28.13.08zM384 446.86a.3.3 0 0 0-.18.08q-.03.08.02.26l-.18-.13a.3.3 0 0 0-.19-.03.1.1 0 0 0-.05.13c.09.24.31.39.54.53.04.03.14 0 .22 0l-.03-.16-.15-.15c.18-.05.29-.19.22-.33a1 1 0 0 0-.2-.2zm11.35-3.44-.13-.12c-.14-.08-.32-.04-.44-.07-.18-.04-.26-.03-.34.09l-.1-.06c-.08-.02-.22-.08-.25-.05q-.07.1-.1.23l.28.05c.07 0 .14-.04.21-.04.11 0 .27-.02.32.02.13.14.26.1.4.05zm-1.07-3.1q-.1.03-.17.08a.2.2 0 0 0 0 .15l.32.6q.41-.18.1-.4c-.14-.07-.28-.14-.2-.31.04-.03-.02-.08-.04-.12zm1.79 3.82q-.2.09-.37.25a.2.2 0 0 0 0 .17q.06.06.17.1.08-.03.16-.1.12-.08.23-.19l.07-.2c-.09-.02-.2-.06-.25-.03zM385.21 448a.2.2 0 0 0-.17.06c-.03.03 0 .1 0 .17h-.4c-.05.02-.08.11-.13.17l.27.06a1 1 0 0 0 .4-.07c.07-.05.1-.18.11-.28 0-.03-.05-.1-.08-.1m7.47-10.54c.64-.31.64-.42.02-.77q.03.14.06.17c.2.08.12.17.04.28q-.08.14-.12.32m3.25 3.48v-.24l-.08-.15-.1-.18-.26.15q-.03.04-.04.1l-.1.16.29-.04zm-1.66 1.18c.1 0 .2-.1.37-.2-.14-.1-.25-.22-.29-.2q-.18.08-.35.21c.1.07.18.18.27.18m-4.3 6.42c-.04-.01-.15.09-.29.17.14.1.23.23.31.22.08 0 .24-.13.24-.2s-.15-.16-.25-.19m-8.8-4.4c.17.13.5.16.31.49l.5-.12-.6-.45zm2.05 1.65a.1.1 0 0 0 .04-.12.2.2 0 0 0-.14-.07l-.3.03-.05-.05c-.05.06-.15.14-.13.16q.08.12.22.14.2 0 .36-.09m1.5 2.85c-.04 0-.08.08-.12.12l.38.25q.15-.09.2-.16c.04-.06-.3-.22-.45-.2m10.7-4.65q0-.13-.04-.25-.05-.08-.13-.14c-.06.04-.16.08-.17.13-.06.24.16.22.34.26m-9.97 4.7.24.17c.05-.06.14-.13.14-.2s-.1-.12-.15-.18zm9.2-7.51-.1.05c.05.1.07.23.15.28.09.04.22-.06.34-.1l-.02-.06zm-14.24-.15v.1l.45.05-.04-.07.2-.22zm9.57 10.1q.13.1.27.17c.01 0 .13-.07.12-.09q-.08-.15-.18-.26zm.36-2.88a.3.3 0 0 0-.19.14c0 .05.09.11.18.22.1-.1.2-.17.18-.22a.2.2 0 0 0-.17-.13zm-7.82-3.56q-.18.05-.34.13l.05.1h.3q.1-.05.12-.13c0-.04-.1-.1-.13-.1m11.1-6.71q.1.09.2.13.1-.02.2-.08v-.08l-.24-.1c-.05.01-.1.1-.16.14zm2.95 7.79c.07.04.14.11.21.11.08 0 .12-.07.24-.14q-.2-.1-.3-.11c-.1-.01-.1.1-.15.15zm-3.48.33c.05.04.1.13.14.12q.15-.06.31-.15-.18-.11-.25-.1zm-10.4.12q0 .08.12.25.15-.14.17-.21c0-.05-.09-.12-.14-.17-.06.04-.15.08-.16.13m-.31-5.39c-.46-.21-.46-.21-.58-.15q.18.3.58.15m-1.05-3.16-.3-.09-.26-.1-.04.09.54.27zm11.34 12.29.14.07.21-.23-.22-.1zm-3-.43.32-.15-.08-.12-.34.14zm3.23-2.11v-.37h-.11l-.08.46.06.03c.05-.04.13-.08.13-.12m-9.05 1.42.2.17.2-.17c-.07-.04-.14-.11-.22-.12s-.12.08-.18.12m3.75 4.4q.09.08.18.11.09-.01.24-.13-.17-.1-.25-.11c-.06 0-.11.08-.16.13m-2.66-5.9v-.05l-.23-.17q-.09-.02-.21.02c.01.05.01.14.04.15q.2.04.4.04m-4.97-4.9-.53.37.08.08.52-.4zm13.17-3.94q.15-.07.28-.17l-.04-.05-.38.04-.04.05c.06.05.14.14.18.12m-2.25 10.05.09.07c.2-.02.24-.16.27-.3l-.06-.04zm2.83-3.04c0 .05.08.1.12.14l.17-.19-.18-.11c-.04.05-.1.1-.1.16m-1.4-8.32.32-.13-.13-.15-.26.18zm-4.49 20.57q.1.09.19.12c.07.01.1-.06.2-.13q-.15-.1-.22-.1c-.07 0-.1.07-.17.11m7.15-15.17c.03.02.13-.04.22-.07l-.4-.2-.08.03zm-3.18 6.47.17.08.13-.26-.13-.06zm-5.66-1.2c-.22-.03-.29.03-.08.14.06.03.2-.02.3-.04l-.02-.07q-.1 0-.2-.03m9.08-5.67a.1.1 0 0 0 0 .1l.3.16.07-.07-.24-.2a.2.2 0 0 0-.13.02m-5.47 9.96q.01.07.16.2.12-.12.11-.16-.04-.08-.12-.16c-.06.05-.17.09-.16.13zm5.35-4.37.16.3.18-.28-.27-.07zm1.2-5.33-.19-.15s-.11.06-.1.08q.07.12.16.22c.06-.07.14-.13.13-.15m-.57.8c-.19.3-.17.34.08.36zm-1.17-.54c-.01.02.07.08.14.14.07-.06.15-.1.14-.14 0-.02-.09-.08-.13-.12-.06.04-.14.07-.16.12m-1.45 3.83c-.02.02.07.08.1.12l.19-.13-.15-.14q-.1.07-.15.15m-3.04 3.08.22-.13c.02-.02-.05-.1-.08-.15l-.22.2zm-7.93-2.45.27.11.08-.1-.23-.1c-.03-.01-.08.06-.12.09m12.07.57q.07.09.17.14.05 0 .18-.1-.12-.12-.2-.13-.08.02-.15.09m-10.86-1.49q-.1.07-.13.14c-.03.07.04.1.06.16l.11-.05c.04-.04.12-.1.1-.12 0-.03-.1-.09-.14-.13m153-1.99-.13-.08q-.22-.05-.44-.05c-.18-.03-.26-.02-.34.06l-.1-.03c-.08-.02-.22-.06-.25-.04q-.07.06-.1.16l.28.04.2-.03a1 1 0 0 1 .33.02q.2.1.4.03zm-1.08-2.2-.16.05a.1.1 0 0 0 0 .1l.31.44q.42-.13.1-.28c-.13-.06-.28-.1-.19-.23.03-.02-.03-.06-.06-.09zm1.8 2.72q-.2.06-.37.18a.1.1 0 0 0 0 .12q.05.04.17.08l.16-.07.22-.15q.06-.07.07-.15zm-4.62-4.96c-.04.02-.03.11.01.15q.13.09.27.14l.22.02c.04 0 .07-.06.08-.07 0-.15-.42-.3-.58-.24m1.2.2c.64-.21.65-.3.03-.54q.02.1.05.12c.21.06.13.12.05.2zm3.26 2.49v-.17l-.08-.11-.1-.13-.26.11-.03.07-.12.11.3-.03zm-2.02 1.18a.3.3 0 0 0-.17.1c-.01.03.06.08.12.1q.2.09.41.14l.08-.04q-.1-.15-.2-.26a.4.4 0 0 0-.25-.03zm.36-.35q.2-.03.37-.14c-.14-.07-.25-.15-.28-.14q-.2.06-.36.15c.09.05.17.13.27.13m-3.7-4.4.35.14c.07-.07.16-.12.14-.16a.3.3 0 0 0-.18-.11q-.17.05-.33.14zm3.96 6.51a1 1 0 0 0-.36-.01c-.21.04-.1.12-.01.23.1-.1.44-.03.37-.21m-1.47.03.32.2.16-.05a.3.3 0 0 0-.1-.15.3.3 0 0 0-.39 0zm2.36-.8-.04-.17c-.02-.04-.09-.07-.13-.1-.06.03-.16.05-.17.1-.07.16.16.15.33.18zm-.78-2-.08.04c.04.07.06.17.14.2s.22-.04.34-.07l-.01-.04zm-1.13 2.1.46-.13-.38-.19zm-3.52 5.01.26.12c.02 0 .13-.05.12-.06l-.18-.2zm.35-2.06a.3.3 0 0 0-.18.1c-.02.04.08.08.17.16.1-.08.2-.12.19-.15a.2.2 0 0 0-.19-.1zm3.28-7.33.21.09q.1 0 .2-.06v-.06l-.25-.06q-.09.02-.16.1zm2.96 5.56q.1.06.2.08.08-.01.24-.1-.14-.06-.29-.08c-.06.01-.11.07-.16.1m-3.5.23c.05.03.11.1.15.09l.3-.1q-.18-.09-.24-.09zm-.41 2.76.14.05.2-.17-.22-.08zm-3.1-.4.1.1.32-.11-.09-.09zm3.33-1.42v-.26h-.12l-.07.33.06.02c.05-.02.12-.05.13-.08m-5.3 4.15q.08.06.18.09.08-.01.24-.1l-.25-.08q-.1.02-.17.1m5.82-10.63-.05-.03-.37.02-.05.04c.06.03.15.1.19.08q.15-.03.28-.11m-2.54 7.3.09.04c.13.01.26-.08.27-.22l-.06-.03zm2.83-2.19c0 .03.08.07.13.1l.16-.13-.18-.09c-.03.05-.1.1-.1.13m-4.36-7.04.14.01.08-.21-.15-.01zm2.97 1.1.32-.1-.13-.1-.26.13zm-4.3 14.78q.05-.01.2-.1l-.22-.07-.17.08q.09.07.18.1m7.18-10.97-.4-.14-.08.02.26.17q.06.01.22-.04m-3.4 4.67.16.06.13-.19-.12-.04zm3.42-4.9v.07l.3.11.06-.04q-.1-.08-.23-.15-.08 0-.14.02zm-5.33 7.03c-.05.02-.15.05-.15.08q.02.04.17.15l.11-.12c.01-.02-.1-.07-.14-.1zm5.2-3.03.16.2.19-.2-.27-.04zm1.2-3.81-.18-.11c-.01 0-.12.05-.11.06q.07.1.17.17c.06-.07.13-.1.12-.12m-.56.57c-.2.21-.17.25.07.26zm-1.18-.39c-.01.02.07.06.14.1.07-.04.15-.07.15-.1l-.14-.08q-.1.03-.15.08m-1.45 2.74c-.01.02.07.05.11.08l.18-.1-.14-.1zm-2.81 2.1c.02 0-.06-.06-.09-.1l-.21.14.07.05q.12-.03.22-.09m3.92-1.25q.07.07.17.1l.18-.07-.2-.1q-.07.02-.15.08"/>
</svg>